<?xml version="1.0" encoding="utf-8"?>
<!-- Generator: Adobe Illustrator 18.1.1, SVG Export Plug-In . SVG Version: 6.00 Build 0)  -->
<!DOCTYPE svg PUBLIC "-//W3C//DTD SVG 1.1//EN" "http://www.w3.org/Graphics/SVG/1.1/DTD/svg11.dtd">
<svg version="1.1" id="Layer_1" xmlns="http://www.w3.org/2000/svg" xmlns:xlink="http://www.w3.org/1999/xlink" x="0px" y="0px"
	 viewBox="1322 379.1 195.3 141.7" enable-background="new 1322 379.1 195.3 141.7" xml:space="preserve">
<g>
	<g>
		<polyline fill="none" stroke="#2A546D" stroke-width="1.2411" stroke-miterlimit="10" points="1407.9,416.8 1407.9,430.7 
			1421.8,430.7 1421.8,500.2 1421.8,430.7 1407.9,416.8 1360.6,416.8 1360.6,500.2 1421.8,500.2 		"/>
		
			<line fill="none" stroke="#2A546D" stroke-width="3.2097" stroke-miterlimit="10" x1="1371.9" y1="447.5" x2="1409.9" y2="447.5"/>
		
			<line fill="none" stroke="#2A546D" stroke-width="3.2097" stroke-miterlimit="10" x1="1371.9" y1="459.7" x2="1409.9" y2="459.7"/>
		
			<line fill="none" stroke="#2A546D" stroke-width="3.2097" stroke-miterlimit="10" x1="1371.9" y1="471.8" x2="1409.9" y2="471.8"/>
		
			<line fill="none" stroke="#2A546D" stroke-width="3.2097" stroke-miterlimit="10" x1="1371.9" y1="483.9" x2="1409.9" y2="483.9"/>
		<g>
			<g>
				<polygon fill="none" stroke="#2A546D" stroke-width="1.2411" stroke-miterlimit="10" points="1441.4,500.2 1433.1,481.1 
					1432.9,406.1 1449.6,405.9 1449.8,480.8 				"/>
				<path fill="#FFFFFF" stroke="#2A546D" stroke-width="1.2411" stroke-miterlimit="10" d="M1449.8,480.8c0,0-8.4-1.9-16.7,0.3"/>
				<path fill="#2A546D" d="M1444.1,494.2c0,0-1.8-1.5-5.6-0.2l2.9,6.2L1444.1,494.2z"/>
			</g>
			
				<line fill="none" stroke="#2A546D" stroke-width="3.2097" stroke-miterlimit="10" x1="1444.1" y1="475.3" x2="1444.1" y2="410.5"/>
			
				<line fill="none" stroke="#2A546D" stroke-width="3.2097" stroke-miterlimit="10" x1="1438.5" y1="475.3" x2="1438.5" y2="410.5"/>
		</g>
		<g>
			<path fill="none" stroke="#2A546D" stroke-width="1.2411" stroke-miterlimit="10" d="M1493.9,492.5c0,4.6-2.9,7.6-7.3,7.6h-17
				c-4.4,0-7.3-3-7.3-7.6v-49.1c0-4.6,2.9-7.6,7.3-7.6h17c4.4,0,7.3,3,7.3,7.6V492.5z"/>
			
				<rect x="1465.4" y="444" fill="none" stroke="#2A546D" stroke-width="1.2411" stroke-miterlimit="10" width="25.4" height="44.3"/>
			<ellipse fill="#2A546D" cx="1477.9" cy="494" rx="3.2" ry="3.4"/>
			<path fill="#2A546D" d="M1482.4,440.6c0,0.4-0.3,0.7-0.7,0.7h-7.1c-0.4,0-0.7-0.3-0.7-0.7l0,0c0-0.4,0.3-0.7,0.7-0.7h7.1
				C1482.1,439.9,1482.4,440.2,1482.4,440.6L1482.4,440.6z"/>
		</g>
	</g>
	<g>
		<circle fill="#46BAC0" cx="1357.8" cy="416.5" r="16.7"/>
		<g>
			<path fill="#FFFFFF" d="M1345.2,416.6c0,0,10.2-15.1,25.3,0C1370.5,416.6,1358.6,432.7,1345.2,416.6z"/>
			<path fill="#46BAC0" d="M1352.2,416.6c0-2.7,2.2-5,5-5c2.7,0,5,2.2,5,5c0,2.7-2.2,5-5,5C1354.4,421.5,1352.2,419.3,1352.2,416.6z
				"/>
		</g>
		<circle fill="#FFFFFF" cx="1357.4" cy="416.8" r="1.2"/>
	</g>
</g>
</svg>
