<?xml version="1.0" encoding="utf-8"?>
<!-- Generator: Adobe Illustrator 18.1.1, SVG Export Plug-In . SVG Version: 6.00 Build 0)  -->
<!DOCTYPE svg PUBLIC "-//W3C//DTD SVG 1.1//EN" "http://www.w3.org/Graphics/SVG/1.1/DTD/svg11.dtd">
<svg version="1.1" id="Layer_1" xmlns="http://www.w3.org/2000/svg" xmlns:xlink="http://www.w3.org/1999/xlink" x="0px" y="0px"
	 viewBox="1143.3 379.1 169.3 141.7" enable-background="new 1143.3 379.1 169.3 141.7" xml:space="preserve">
<g>
	<g>
		<path fill="none" stroke="#2A546D" stroke-width="0.9396" stroke-miterlimit="10" d="M1178,419.8h111.8c2.2,0,3.9,1.4,3.9,3.2
			v28.7c0,1.8-1.7,3.2-3.9,3.2h-95.3l-15.6,8.6l5.6-8.6h-6.5c-2.2,0-3.9-1.4-3.9-3.2V423C1174.1,421.3,1175.8,419.8,1178,419.8z"/>
		<g>
			<circle fill="#46BAC1" cx="1172.1" cy="418.1" r="16.7"/>
			<g>
				<path fill="#FFFFFF" d="M1168.4,414.4h5.1V426h2.6v2h-7.7v-2h2.6v-9.6h-2.6V414.4z M1174,409.6c0,0.3-0.1,0.5-0.2,0.8
					c-0.1,0.2-0.2,0.4-0.4,0.6c-0.2,0.2-0.4,0.3-0.6,0.4c-0.2,0.1-0.5,0.2-0.7,0.2c-0.3,0-0.5-0.1-0.8-0.2c-0.2-0.1-0.4-0.2-0.6-0.4
					c-0.2-0.2-0.3-0.4-0.4-0.6c-0.1-0.2-0.2-0.5-0.2-0.8c0-0.3,0.1-0.5,0.2-0.7c0.1-0.2,0.2-0.4,0.4-0.6c0.2-0.2,0.4-0.3,0.6-0.4
					c0.2-0.1,0.5-0.2,0.8-0.2c0.3,0,0.5,0.1,0.7,0.2c0.2,0.1,0.4,0.3,0.6,0.4c0.2,0.2,0.3,0.4,0.4,0.6
					C1173.9,409.1,1174,409.4,1174,409.6z"/>
			</g>
		</g>
		
			<line fill="none" stroke="#2A546D" stroke-width="3.2756" stroke-miterlimit="10" x1="1201.1" y1="436.6" x2="1271.5" y2="436.6"/>
	</g>
	<path fill="none" stroke="#2A546D" stroke-width="0.9396" stroke-miterlimit="10" d="M1301.1,462.7h-89.5c-1.7,0-3.1,1.1-3.1,2.6
		v23c0,1.4,1.4,2.6,3.1,2.6h76.2l12.5,6.9l-4.5-6.9h5.2c1.7,0,3.1-1.1,3.1-2.6v-23C1304.2,463.8,1302.8,462.7,1301.1,462.7z"/>
	<line fill="none" stroke="#2A546D" stroke-width="3.2756" stroke-miterlimit="10" x1="1230.1" y1="476.1" x2="1286.4" y2="476.1"/>
</g>
</svg>
