<?xml version="1.0" encoding="UTF-8" standalone="no"?>
<!-- Created with Inkscape (http://www.inkscape.org/) -->

<svg
   xmlns:dc="http://purl.org/dc/elements/1.1/"
   xmlns:cc="http://creativecommons.org/ns#"
   xmlns:rdf="http://www.w3.org/1999/02/22-rdf-syntax-ns#"
   xmlns:svg="http://www.w3.org/2000/svg"
   xmlns="http://www.w3.org/2000/svg"
   version="1.1"
   width="710.17065"
   height="367.91425"
   id="svg3760">
  <defs
     id="defs3762" />
  <metadata
     id="metadata3765">
    <rdf:RDF>
      <cc:Work
         rdf:about="">
        <dc:format>image/svg+xml</dc:format>
        <dc:type
           rdf:resource="http://purl.org/dc/dcmitype/StillImage" />
        <dc:title></dc:title>
      </cc:Work>
    </rdf:RDF>
  </metadata>
  <g
     transform="translate(180.11378,23.471852)"
     id="layer1">
    <path
       d=""
       id="path4295"
       style="fill:#000000" />
    <path
       d="m 613.98658,-98.384097 c -2.8315,-1.14252 -2.60421,-52.000483 0.24978,-55.903573 1.88582,-2.57888 3.98916,-2.86348 21.16316,-2.86348 13.99442,0 19.7185,0.53879 21.50878,2.02457 1.94887,1.61752 2.43938,4.78124 2.43938,15.73495 0,13.25256 -0.13521,13.8089 -4.05133,16.66158 l -4.05133,2.95122 2.75155,7.12916 c 4.23657,10.97647 4.54746,13.602333 1.73767,14.680553 -4.68148,1.79644 -8.87295,-1.78808 -12.48737,-10.679053 -4.84176,-11.91011 -5.53656,-12.57887 -12.53722,-12.06578 l -6.02815,0.44182 -0.44373,10.28534 c -0.50835,11.785213 -2.9501,14.548793 -10.25119,11.602693 z m 33.28932,-41.497723 0.467,-4.85811 -11.51476,0.43263 c -9.737,0.3658 -11.59332,0.84444 -12.02431,3.1003 -1.16052,6.07616 0.63035,7.07292 11.88881,6.61711 l 10.71624,-0.43385 0.46702,-4.85808 z m 25.3483,41.399463 c -1.21696,-0.46326 -2.70042,-1.572553 -3.29652,-2.465063 -0.59611,-0.89252 -1.09402,-12.99242 -1.10635,-26.88867 -0.0198,-21.70893 0.32045,-25.55094 2.41422,-27.29049 2.63905,-2.19252 25.92072,-3.73979 32.27505,-2.14495 2.97262,0.7461 3.64235,1.82923 3.64235,5.89129 0,6.14047 -1.44731,6.76795 -15.60981,6.76795 l -10.94314,0 0,5.16307 c 0,4.99483 0.18267,5.16306 5.60565,5.16306 7.21186,0 9.39769,2.09614 7.47084,7.16431 -1.79474,4.7205 -3.77946,6.06037 -9.01983,6.08957 -3.64837,0.0203 -4.05666,0.54212 -4.05666,5.18564 l 0,5.16306 10.94314,0 c 14.09814,0 15.60981,0.64281 15.60981,6.63824 0,3.05938 -0.8608,5.177683 -2.33348,5.742813 -2.90246,1.1138 -28.5809,0.96766 -31.59527,-0.17983 z m 43.14853,0.0983 c -2.83061,-1.14214 -2.60431,-51.999793 0.2486,-55.903583 1.88473,-2.57892 3.98767,-2.86349 21.15989,-2.86349 13.99096,0 19.71751,0.539 21.50986,2.02456 2.11143,1.74991 2.44284,5.6989 2.44284,29.10635 l 0,27.081763 -3.70719,0.93041 c -5.16814,1.29714 -7.85751,-1.50446 -8.38375,-8.733703 l -0.44796,-6.15452 -11.06373,0 -11.06375,0 -0.47036,6.61399 c -0.5747,8.079663 -3.73148,10.518213 -10.22445,7.898233 z m 33.26315,-37.071803 0.44076,-9.28309 -11.50449,0.43214 -11.50461,0.43214 -0.45428,7.12163 c -0.64278,10.07615 1.05927,11.53392 12.85659,11.01121 l 9.72517,-0.43088 0.44086,-9.28311 z m 22.79298,37.128343 c -1.38437,-0.60099 -1.84399,-7.933893 -1.84399,-29.415173 l 0,-28.61462 3.67166,-0.92154 c 2.01944,-0.50685 11.69902,-0.68454 21.51026,-0.39488 15.59353,0.46038 18.10181,0.88678 19.93087,3.38812 3.01496,4.12318 3.01635,49.14844 0,53.27748 -1.86687,2.556933 -4.1964,2.896563 -21.75866,3.172343 -10.8174,0.16984 -20.49776,-0.0515 -21.51193,-0.49173 z m 32.8223,-29.320343 0,-16.22679 -11.06374,0 -11.06375,0 -0.42536,14.64662 c -0.23401,8.05564 -0.078,15.55293 0.34739,16.66062 0.57735,1.50433 3.48494,1.90422 11.48921,1.58016 l 10.71625,-0.43383 0,-16.22678 z m 29.26028,27.927153 c -0.54331,-1.415973 -0.0247,-4.295923 1.15353,-6.399863 1.95292,-3.48898 3.07723,-3.86348 12.78532,-4.25878 15.79852,-0.64328 13.01687,-3.25449 -3.46678,-3.25449 -20.55145,0 -19.81776,0.84749 -19.81776,-22.88878 l 0,-19.83469 3.70708,-0.93041 c 6.5146,-1.63505 7.94999,1.24373 8.41139,16.86987 l 0.42042,14.24516 9.34857,0.4425 c 12.91086,0.61116 13.51644,-0.1394 13.51644,-16.75051 0,-12.3503 0.29164,-13.82656 2.89465,-14.6527 1.59201,-0.50529 4.28869,-0.17262 5.99261,0.7393 2.9978,1.60433 3.08316,2.51205 2.63727,28.03974 -0.33426,19.13634 -0.98644,26.90739 -2.37473,28.29573 -1.26536,1.265343 -7.38834,2.083173 -18.06708,2.413203 -14.28288,0.44141 -16.2673,0.20114 -17.14093,-2.07528 z M 612.7993,-167.15596 c -0.3992,-1.04028 -0.54429,-14.15078 -0.32252,-29.13443 l 0.40336,-27.24302 20.87606,-0.40841 c 17.53215,-0.343 21.25375,-0.0307 23.23381,1.94932 3.47152,3.4715 3.50606,50.94338 0.0394,54.40983 -3.08543,3.08544 -43.06207,3.4711 -44.23028,0.42671 z m 34.00958,-27.61182 0,-16.96434 -11.06374,0 -11.06364,0 -0.4234,15.38947 c -0.2329,8.4642 -0.077,16.29338 0.34741,17.3982 0.57479,1.49793 3.49579,1.89841 11.48713,1.57488 l 10.71624,-0.43383 0,-16.96438 z m 23.97135,27.90991 c -2.23626,-1.30252 -2.5815,-3.92037 -2.5815,-19.57478 0,-12.08849 0.58604,-18.65723 1.77015,-19.84138 1.19774,-1.19771 8.05687,-1.77019 21.20925,-1.77019 16.2825,0 19.76774,0.39613 21.46358,2.43946 1.45007,1.74728 2.02457,7.12443 2.02457,18.95037 0,11.82594 -0.5745,17.20311 -2.02457,18.95039 -1.69171,2.03829 -5.08792,2.43208 -20.65223,2.3946 -10.24529,-0.0247 -19.78936,-0.72148 -21.20925,-1.54847 z m 31.92697,-12.54136 c 1.15382,-3.00695 1.15382,-11.50335 0,-14.5103 -0.70477,-1.83659 -3.21737,-2.33341 -11.80136,-2.33341 l -10.90584,0 0,8.60512 c 0,4.7328 0.44253,9.04765 0.98337,9.58854 0.54094,0.5409 5.44862,0.98344 10.90593,0.98344 7.68717,0 10.12419,-0.52565 10.8179,-2.33339 z m 21.39676,11.74467 c -3.24905,-3.90776 -3.77608,-32.04122 -0.68848,-36.75349 2.30318,-3.51517 2.94586,-3.63617 19.31286,-3.63617 16.12658,0 16.93033,0.14469 16.93033,3.0473 0,7.31312 -2.32678,8.75398 -14.13624,8.75398 l -11.08219,0 0.43917,9.21976 0.43919,9.21978 12.53879,0.73756 12.5389,0.73759 0,5.16306 0,5.16307 -17.11527,0.4137 c -14.5618,0.352 -17.4228,0.0438 -19.17706,-2.06614 z m 46.49162,0.37879 c -0.46424,-1.20984 -0.6256,-3.74157 -0.35864,-5.62608 0.40246,-2.83999 1.36916,-3.4264 5.64856,-3.4264 4.91717,0 5.16301,0.24585 5.16301,5.16306 0,4.74902 -0.38519,5.2002 -4.80434,5.62608 -3.22193,0.31048 -5.08249,-0.26157 -5.64859,-1.73666 z"
       id="path4408"
       style="fill:#ffffff" />
    <g
       id="text2988"
       style="font-size:99.40019226px;font-style:normal;font-variant:normal;font-weight:normal;font-stretch:normal;line-height:125%;letter-spacing:0px;word-spacing:0px;fill:#000000;fill-opacity:1;stroke:none;font-family:PT Sans;-inkscape-font-specification:PT Sans" />
    <g
       transform="scale(0.97987319,1.0205402)"
       id="text3000"
       style="font-size:83.94313049px;font-style:normal;font-variant:normal;font-weight:normal;font-stretch:normal;line-height:125%;letter-spacing:0px;word-spacing:0px;fill:#000000;fill-opacity:1;stroke:none;font-family:PT Sans;-inkscape-font-specification:PT Sans" />
    <g
       transform="matrix(1.8205128,0,0,1.8205128,-434.87179,-282.55358)"
       id="g3060">
      <path
         d="m 190,170.22425 0,174.13793 300,0 40,-87.06896 -40,-87.06897 z"
         id="path4282"
         style="fill:#8aa54f;fill-opacity:0.94117647;stroke:#000000;stroke-width:0;stroke-linecap:butt;stroke-linejoin:miter;stroke-miterlimit:4;stroke-opacity:1;stroke-dasharray:none" />
      <path
         d="m 166,156.29322 0,174.13793 300,0 40,-87.06897 -40,-87.06896 z"
         id="path4280"
         style="fill:#c871af;fill-opacity:1;stroke:#000000;stroke-width:0;stroke-linecap:butt;stroke-linejoin:miter;stroke-miterlimit:4;stroke-opacity:1;stroke-dasharray:none" />
      <path
         d="m 140,142.36218 0,174.13793 300,0 40,-87.06896 -40,-87.06897 z"
         id="path3770"
         style="fill:#d96342;fill-opacity:1;stroke:#000000;stroke-width:0;stroke-linecap:butt;stroke-linejoin:miter;stroke-miterlimit:4;stroke-opacity:1;stroke-dasharray:none" />
      <path
         d="m 253.10439,178.07151 c -7.38954,0.22097 -16.24293,1.45829 -20.67055,8.07624 -4.02553,6.10058 -1.68937,13.86572 -2.31695,20.70365 0.19211,6.25662 -1.37958,13.99876 3.92227,18.66804 5.78348,5.05401 14.22365,5.60495 21.63043,5.65999 7.57362,-0.35716 16.68976,-1.40023 21.43184,-8.0266 3.73233,-5.7675 1.5018,-13.09799 2.11835,-19.54517 -0.19772,-6.54223 1.36946,-14.37258 -3.83952,-19.47897 -5.76264,-5.50998 -14.70079,-6.16542 -22.27587,-6.05718 z m 55.16009,0 c -7.67336,0.1758 -17.06714,1.56086 -21.03464,8.95337 -2.93123,6.29182 -0.99229,13.55184 -1.55569,20.27336 0.0472,6.17338 -1.13581,13.64693 3.95538,18.27085 6.04698,5.38706 14.82048,5.69521 22.54035,5.57553 4.91192,-0.1701 9.7914,-0.81262 14.59713,-1.8353 0,-3.72368 0,-7.44736 0,-11.17104 -8.03625,1.6362 -17.03362,4.31583 -24.89071,0.72819 -3.82418,-2.43417 -1.58103,-7.68323 -2.18456,-11.36964 0.3338,-5.26644 -0.63505,-10.83251 0.41374,-15.93732 2.02169,-3.54404 7.05053,-2.69029 10.54214,-2.91276 5.35001,0.11649 10.59524,1.17325 15.80495,2.38316 0,-3.71816 0,-7.43632 0,-11.15448 -6.05841,-0.91488 -12.02468,-1.96779 -18.18809,-1.80392 z m -53.60442,10.55869 c 3.6129,0.23454 8.95473,-0.13326 10.3932,4.00503 0.21873,8.16358 0.32083,16.43104 -0.0496,24.57627 -1.40669,3.66887 -6.40923,3.08044 -9.61532,3.3837 -3.54431,-0.25603 -8.30088,0.45627 -10.75735,-2.67207 -1.29521,-4.21677 -0.071,-8.91665 -0.49648,-13.28938 0.43884,-4.32751 -0.85779,-9.01398 0.59579,-13.157 2.16094,-3.00053 6.64605,-2.60482 9.9298,-2.84655 z m 76.12852,30.21972 c 0,3.86159 0,7.72319 0,11.58478 4.67254,0 9.34506,0 14.01759,0 0,-4.21466 0,-8.42931 0,-12.64396 -4.67253,0 -9.34505,0 -14.01759,0 l 0,0.52959 0,0.52959 z M 425.69535,239.51741 406,273.01244 l 0,22.67603 -12.96202,0 0,-22.50434 -19.53051,-33.66672 14.70937,0 11.38456,21.98402 11.3034,-21.98402 z m -53.50595,17.04994 0,22.85037 c -5e-5,6.3463 -1.88353,10.64467 -5.65043,12.89509 -3.76701,2.25045 -10.38791,3.37566 -19.86276,3.37566 l -23.01764,0 0,-56.17106 22.93649,0 c 9.14007,6e-5 15.69082,1.18295 19.65226,3.54866 3.96133,2.36582 5.94203,6.86625 5.94208,13.50128 z m -12.96456,22.85037 0,-23.10921 c -3e-5,-2.71352 -1.05251,-4.58932 -3.15743,-5.62742 -2.10501,-1.03799 -5.29035,-1.55703 -9.55603,-1.55706 l -9.88826,0 0,36.95784 9.47234,0 c 4.98594,1e-5 8.42067,-0.3896 10.30419,-1.16881 1.88341,-0.77919 2.82516,-2.61096 2.82519,-5.49534 z m -41.54895,16.27075 -13.12939,0 -4.81859,-14.79952 -19.69536,0 -4.73744,14.79952 -12.79717,0 19.94392,-56.17106 15.78975,0 z m -20.77573,-23.80126 -6.81197,-21.12027 -0.33478,0 -6.81449,21.12027 z m -37.42525,23.80126 -41.9674,0 0,-56.17106 41.13556,0 0,9.60662 -28.17101,0 0,12.89509 25.42949,0 0,9.6066 -25.42949,0 0,14.45615 29.00285,0 z m -49.44382,0 -14.96046,0 -14.12608,-22.07117 -5.98267,0 0,22.07117 -12.96455,0 0,-56.17106 24.26542,0 c 7.0909,6e-5 12.27088,0.89416 15.53997,2.6823 3.26898,1.78825 4.9035,4.84649 4.90354,9.17475 l 0,9.86546 c -4e-5,3.40561 -1.17722,6.03156 -3.53152,7.87784 -2.35438,1.84633 -5.27725,3.00016 -8.76857,3.4615 z m -16.04083,-37.12953 0,-3.98316 c -4e-5,-2.07607 -0.59561,-3.50372 -1.78669,-4.28295 -1.19115,-0.77915 -3.22722,-1.16877 -6.1082,-1.1688 l -11.13349,0 0,15.57871 11.13349,0 c 3.04837,3e-5 5.12627,-0.41818 6.23374,-1.25464 1.10739,-0.83641 1.66111,-2.46611 1.66115,-4.88916 z m 28.24149,-72.8565 0,26.51338 c -7e-5,7.36365 -2.27617,12.35106 -6.82832,14.96224 -4.55227,2.61119 -12.55338,3.91679 -24.00332,3.91679 l -27.81591,0 0,-65.17554 27.71783,0 c 11.04541,7e-5 18.96171,1.37258 23.74895,4.11753 4.78712,2.74508 7.1807,7.96694 7.18077,15.6656 z m -15.66712,26.51338 0,-26.81373 c -6e-5,-3.1485 -1.27195,-5.32499 -3.81566,-6.5295 -2.5438,-1.20441 -6.39317,-1.80663 -11.54807,-1.80669 l -11.94957,0 0,42.88235 11.44694,0 c 6.02532,1e-5 10.17604,-0.45205 12.45219,-1.35617 2.27606,-0.90409 3.41411,-3.0295 3.41417,-6.37626 z"
         id="text3006"
         style="font-size:144px;font-style:normal;font-variant:normal;font-weight:normal;font-stretch:normal;line-height:125%;letter-spacing:0px;word-spacing:0px;fill:#ffffff;fill-opacity:1;stroke:none;font-family:PT Sans;-inkscape-font-specification:PT Sans" />
    </g>
  </g>
</svg>
