<?xml version="1.0" encoding="utf-8"?>
<!-- Generator: Adobe Illustrator 18.1.1, SVG Export Plug-In . SVG Version: 6.00 Build 0)  -->
<!DOCTYPE svg PUBLIC "-//W3C//DTD SVG 1.1//EN" "http://www.w3.org/Graphics/SVG/1.1/DTD/svg11.dtd">
<svg version="1.1" id="Layer_1" xmlns="http://www.w3.org/2000/svg" xmlns:xlink="http://www.w3.org/1999/xlink" x="0px" y="0px"
	 viewBox="441.4 679.1 141.7 141.7" enable-background="new 441.4 679.1 141.7 141.7" xml:space="preserve">
<g>
	<circle fill="#E0DE3C" cx="512.3" cy="750" r="70.9"/>
	<rect x="512.3" y="760.6" fill="#FFFFFF" width="13.7" height="9"/>
	<rect x="496.3" y="760.6" fill="#FFFFFF" width="13.7" height="9"/>
	<rect x="496.3" y="749.4" fill="#FFFFFF" width="13.7" height="9"/>
	<rect x="512.3" y="749.4" fill="#FFFFFF" width="13.7" height="9"/>
	<path fill="#28546D" d="M545.3,720.2h-10.3v-3.4c0-0.6-0.5-1.1-1.1-1.1h-9.1c-0.6,0-1.1,0.5-1.1,1.1v3.4h-22.8v-3.4
		c0-0.6-0.5-1.1-1.1-1.1h-9.1c-0.6,0-1.1,0.5-1.1,1.1v3.4h-10.3c-0.6,0-1.1,0.5-1.1,1.1v14.6h68.4v-14.6
		C546.5,720.7,546,720.2,545.3,720.2z M498.6,727h-6.8v-9h6.8V727z M532.8,727h-6.8v-9h6.8V727z"/>
	<path fill="#2A546D" d="M478,781.9c0,0.6,0.5,1.1,1.1,1.1h66.2c0.6,0,1.1-0.5,1.1-1.1v-43.7H478V781.9z M484.9,760.6
		c-0.6,0-1.1-0.5-1.1-1.1s0.5-1.1,1.1-1.1h9.1v-9h-9.1c-0.6,0-1.1-0.5-1.1-1.1c0-0.6,0.5-1.1,1.1-1.1h9.1v-4.8
		c0-0.6,0.5-1.1,1.1-1.1s1.1,0.5,1.1,1.1v4.8H510v-4.8c0-0.6,0.5-1.1,1.1-1.1c0.6,0,1.1,0.5,1.1,1.1v4.8h13.7v-4.8
		c0-0.6,0.5-1.1,1.1-1.1s1.1,0.5,1.1,1.1v4.8h11.4c0.6,0,1.1,0.5,1.1,1.1c0,0.6-0.5,1.1-1.1,1.1h-11.4v9h11.4c0.6,0,1.1,0.5,1.1,1.1
		s-0.5,1.1-1.1,1.1h-11.4v9h11.4c0.6,0,1.1,0.5,1.1,1.1s-0.5,1.1-1.1,1.1h-11.4v4.4c0,0.6-0.5,1.1-1.1,1.1s-1.1-0.5-1.1-1.1v-4.4
		h-13.7v4.4c0,0.6-0.5,1.1-1.1,1.1c-0.6,0-1.1-0.5-1.1-1.1v-4.4h-13.7v4.4c0,0.6-0.5,1.1-1.1,1.1s-1.1-0.5-1.1-1.1v-4.4h-9.1
		c-0.6,0-1.1-0.5-1.1-1.1s0.5-1.1,1.1-1.1h9.1v-9H484.9z"/>
	<line fill="none" stroke="#EA5A5E" stroke-width="0.5" stroke-miterlimit="10" x1="494" y1="749.4" x2="510" y2="758.4"/>
	<line fill="none" stroke="#EA5A5E" stroke-width="0.5" stroke-miterlimit="10" x1="512.3" y1="749.4" x2="496.3" y2="758.4"/>
	<path fill="#28546D" d="M539.6,779.4h-56.8c-2.6,0-4.8-2.1-4.8-4.8v-30.2c0-2.6,2.1-4.8,4.8-4.8h56.8c2.6,0,4.8,2.1,4.8,4.8v30.2
		C544.3,777.3,542.2,779.4,539.6,779.4z"/>
	<g>
		<path fill="#E0DE39" d="M510.9,772.5v-17.2l-4,4l-2.9-3l7.5-7.5h4.4v23.8H510.9z"/>
	</g>
	<polyline fill="#2A546D" stroke="#E0DE3C" stroke-width="0.5" stroke-miterlimit="10" points="494.2,783.9 494.2,765.2 
		477.4,765.2 	"/>
	<polygon fill="#E0DE39" points="475.7,762 496.3,786.2 473.9,787.8 	"/>
</g>
</svg>
