<?xml version="1.0" encoding="UTF-8" standalone="no"?>
<!-- Created with Inkscape (http://www.inkscape.org/) -->

<svg
   xmlns:dc="http://purl.org/dc/elements/1.1/"
   xmlns:cc="http://creativecommons.org/ns#"
   xmlns:rdf="http://www.w3.org/1999/02/22-rdf-syntax-ns#"
   xmlns:svg="http://www.w3.org/2000/svg"
   xmlns="http://www.w3.org/2000/svg"
   version="1.1"
   width="60"
   height="60"
   id="svg2">
  <defs
     id="defs4" />
  <metadata
     id="metadata7">
    <rdf:RDF>
      <cc:Work
         rdf:about="">
        <dc:format>image/svg+xml</dc:format>
        <dc:type
           rdf:resource="http://purl.org/dc/dcmitype/StillImage" />
        <dc:title></dc:title>
      </cc:Work>
    </rdf:RDF>
  </metadata>
  <g
     transform="translate(0,-992.36214)"
     id="layer1">
    <path
       d="m 28.125,10.59375 c -1.805607,0 -3.25,1.444393 -3.25,3.25 0,1.805607 1.444393,3.25 3.25,3.25 l 5.59375,0 c 1.805607,0 3.25,-1.444393 3.25,-3.25 0,-1.805607 -1.444393,-3.25 -3.25,-3.25 l -5.59375,0 z M 21.03125,18.75 c -1.805607,0 -3.25,1.475643 -3.25,3.28125 0,1.805607 1.444393,3.25 3.25,3.25 l 18.65625,0 c 1.805607,0 3.25,-1.444393 3.25,-3.25 0,-1.805607 -1.444393,-3.28125 -3.25,-3.28125 l -18.65625,0 z m -6.96875,8.46875 c -1.805607,0 -3.25,1.444393 -3.25,3.25 0,1.805607 1.444393,3.28125 3.25,3.28125 l 10.46875,0 c 1.805607,0 3.25,-1.475643 3.25,-3.28125 0,-1.805607 -1.444393,-3.25 -3.25,-3.25 l -10.46875,0 z m 19.1875,0 c -1.805607,0 -3.28125,1.444393 -3.28125,3.25 0,1.805607 1.475643,3.28125 3.28125,3.28125 l 13.90625,0 c 1.805607,0 3.28125,-1.475643 3.28125,-3.28125 0,-1.805607 -1.475643,-3.25 -3.28125,-3.25 l -13.90625,0 z M 17,35.53125 c -1.805607,0 -3.25,1.444393 -3.25,3.25 0,1.805607 1.444393,3.28125 3.25,3.28125 l 13.9375,0 c 1.805607,0 3.25,-1.475643 3.25,-3.28125 0,-1.805607 -1.444393,-3.25 -3.25,-3.25 l -13.9375,0 z m 22.21875,0 c -1.805607,0 -3.25,1.444393 -3.25,3.25 0,1.805607 1.444393,3.28125 3.25,3.28125 l 3.375,0 c 1.805607,0 3.25,-1.475643 3.25,-3.28125 0,-1.805607 -1.444393,-3.25 -3.25,-3.25 l -3.375,0 z m -8.875,8.3125 c -1.805607,0 -3.25,1.444393 -3.25,3.25 0,1.805607 1.444393,3.28125 3.25,3.28125 l 3.375,0 c 1.805607,0 3.25,-1.475643 3.25,-3.28125 0,-1.805607 -1.444393,-3.25 -3.25,-3.25 l -3.375,0 z"
       transform="translate(0,992.36214)"
       id="rect2990"
       style="fill:#ffffff;fill-opacity:1;stroke:#1a1a1a;stroke-width:0;stroke-linecap:round;stroke-linejoin:round;stroke-miterlimit:4;stroke-opacity:1;stroke-dasharray:none;stroke-dashoffset:0" />
  </g>
</svg>
