<?xml version="1.0" encoding="UTF-8" standalone="no"?>
<!-- Generator: Adobe Illustrator 15.0.0, SVG Export Plug-In . SVG Version: 6.00 Build 0)  -->

<svg
   xmlns:dc="http://purl.org/dc/elements/1.1/"
   xmlns:cc="http://creativecommons.org/ns#"
   xmlns:rdf="http://www.w3.org/1999/02/22-rdf-syntax-ns#"
   xmlns:svg="http://www.w3.org/2000/svg"
   xmlns="http://www.w3.org/2000/svg"
   xmlns:sodipodi="http://sodipodi.sourceforge.net/DTD/sodipodi-0.dtd"
   xmlns:inkscape="http://www.inkscape.org/namespaces/inkscape"
   version="1.1"
   id="Layer_1"
   x="0px"
   y="0px"
   width="70"
   height="70"
   viewBox="0 0 70 70"
   enable-background="new 0 0 93.595 93.83"
   xml:space="preserve"
   inkscape:version="0.48.2 r9819"
   sodipodi:docname="advice_3.svg"><metadata
   id="metadata19"><rdf:RDF><cc:Work
       rdf:about=""><dc:format>image/svg+xml</dc:format><dc:type
         rdf:resource="http://purl.org/dc/dcmitype/StillImage" /><dc:title></dc:title></cc:Work></rdf:RDF></metadata><defs
   id="defs17" /><sodipodi:namedview
   pagecolor="#ffffff"
   bordercolor="#666666"
   borderopacity="1"
   objecttolerance="10"
   gridtolerance="10"
   guidetolerance="10"
   inkscape:pageopacity="0"
   inkscape:pageshadow="2"
   inkscape:window-width="1366"
   inkscape:window-height="706"
   id="namedview15"
   showgrid="false"
   inkscape:zoom="5.030374"
   inkscape:cx="5.7962239"
   inkscape:cy="28.455973"
   inkscape:window-x="-8"
   inkscape:window-y="287"
   inkscape:window-maximized="1"
   inkscape:current-layer="Layer_1"
   fit-margin-top="0"
   fit-margin-left="0"
   fit-margin-right="0"
   fit-margin-bottom="0" />

<path
   style="fill:#ffffff;fill-opacity:1;stroke:#1a1a1a;stroke-width:0;stroke-linecap:round;stroke-linejoin:round;stroke-miterlimit:4;stroke-opacity:1;stroke-dasharray:none;stroke-dashoffset:0"
   d="m 35.01199,14.855272 c -6.926468,0 -12.550804,5.601329 -12.590454,12.51851 l -2.590036,0 c -0.760649,0 -1.390945,0.606315 -1.390945,1.366964 l 0,25.013037 c 0,0.760649 0.630296,1.390946 1.390945,1.390946 l 30.337,0 c 0.760649,0 1.390945,-0.630297 1.390945,-1.390946 l 0,-25.013037 c 0,-0.760649 -0.630296,-1.366964 -1.390945,-1.366964 l -2.566054,0 C 47.562866,20.456541 41.938503,14.855272 35.01199,14.855272 z m 0,2.9018 c 5.325774,0 9.649318,4.300195 9.688656,9.61671 l -19.37731,0 c 0.03934,-5.316515 4.362881,-9.61671 9.688654,-9.61671 z M 34.844118,33.00951 c 2.000344,0 3.621255,1.620911 3.621255,3.621254 0,1.257153 -0.634318,2.372256 -1.606782,3.02171 l 1.606782,9.856527 -6.954728,0 1.438909,-9.784582 c -1.032597,-0.638082 -1.72669,-1.790656 -1.72669,-3.093655 0,-2.000343 1.620911,-3.621254 3.621254,-3.621254 z"
   id="rect2996"
   inkscape:connector-curvature="0" /></svg>