<?xml version="1.0" encoding="UTF-8" standalone="no"?>
<!-- Created with Inkscape (http://www.inkscape.org/) -->

<svg
   xmlns:dc="http://purl.org/dc/elements/1.1/"
   xmlns:cc="http://creativecommons.org/ns#"
   xmlns:rdf="http://www.w3.org/1999/02/22-rdf-syntax-ns#"
   xmlns:svg="http://www.w3.org/2000/svg"
   xmlns="http://www.w3.org/2000/svg"
   version="1.1"
   width="93.596001"
   height="93.830002"
   viewBox="0 0 93.596 93.83"
   id="Layer_1"
   xml:space="preserve"><metadata
   id="metadata29"><rdf:RDF><cc:Work
       rdf:about=""><dc:format>image/svg+xml</dc:format><dc:type
         rdf:resource="http://purl.org/dc/dcmitype/StillImage" /><dc:title></dc:title></cc:Work></rdf:RDF></metadata><defs
   id="defs27" />

<path
   d="m 26.215348,18.544091 0,55.971111 41.856329,0.139401 0.174243,-46.561272 -9.409818,-9.54924 -32.620754,0 z m 31.191863,2.195629 8.782529,8.2946 -8.608285,0 -0.174244,-8.2946 z"
   id="path3018-9"
   style="fill:#ffffff;stroke:#000000;stroke-width:0;stroke-linecap:butt;stroke-linejoin:miter;stroke-miterlimit:4;stroke-opacity:1;stroke-dasharray:none" /><path
   d="m 59.484652,41.867573 c -1.076983,1.4e-5 -1.862554,0.214069 -2.351616,0.671884 -0.489062,0.457842 -0.746537,1.208598 -0.746537,2.202289 l 0,0.634553 -1.306424,0.63456 0,1.15713 1.306424,0 0,6.942805 2.388906,0 0,-6.942805 2.053028,0 0,-1.79169 -2.053028,0 0,-0.559899 c 0,-0.31215 0.0731,-0.546232 0.224008,-0.746538 0.150837,-0.200299 0.408312,-0.298608 0.746537,-0.298615 0.405764,7e-6 0.827758,0.07309 1.306424,0.223961 l 0.634533,-1.754366 c -0.639898,-0.244511 -1.380265,-0.373255 -2.202255,-0.373269 z m -8.361205,0.07465 0,2.799519 c 0,0.50986 0.06707,1.104045 0.186584,1.754359 l -0.07465,0 c -0.577459,-0.853216 -1.403137,-1.30643 -2.500911,-1.306437 -1.045729,7e-6 -1.867852,0.433195 -2.463553,1.231784 -0.595701,0.798609 -0.895832,1.89138 -0.895832,3.322094 0,1.409911 0.273237,2.526095 0.858542,3.322095 0.585238,0.796001 1.401325,1.19446 2.426196,1.19446 1.10817,0 1.922513,-0.448009 2.463621,-1.306444 l 0.111937,0 0.447949,1.157137 1.82902,0 0,-12.168567 -2.388906,0 z m -10.488881,3.247441 c -1.092543,7e-6 -1.906886,0.442812 -2.463553,1.306437 l -0.112005,0 -0.335945,-1.119806 -1.941024,0 0,12.541835 2.388974,0 0,-3.508725 c 0,-0.114459 -0.02884,-0.540752 -0.112005,-1.269114 l 0.112005,0 c 0.582689,0.743975 1.401325,1.119806 2.426196,1.119806 0.681548,0 1.249751,-0.200923 1.754373,-0.559906 0.504689,-0.358977 0.884027,-0.880983 1.157129,-1.567729 0.27317,-0.686739 0.410593,-1.494973 0.410593,-2.426243 0,-1.415108 -0.275785,-2.526088 -0.858475,-3.322095 -0.582689,-0.795993 -1.396161,-1.194453 -2.426263,-1.19446 z m -0.746538,1.903667 c 0.561899,7e-6 0.969071,0.24268 1.231777,0.671884 0.262707,0.429224 0.373302,1.045246 0.373302,1.903674 0,1.758484 -0.501201,2.650211 -1.567722,2.650211 -0.603547,0 -1.065447,-0.191426 -1.34378,-0.59723 -0.278334,-0.405804 -0.410592,-1.079176 -0.410592,-2.015651 l 0,-0.261291 c 0.01073,-0.832412 0.140038,-1.430105 0.410592,-1.79169 0.270486,-0.361579 0.718503,-0.5599 1.306423,-0.559907 z m 9.555693,0.03736 c 0.650294,7e-6 1.129631,0.228757 1.418428,0.634554 0.288729,0.40581 0.447882,1.079189 0.447882,2.015658 l 0,0.223961 c -0.02616,0.848025 -0.201675,1.475241 -0.48524,1.829013 -0.283497,0.353779 -0.697711,0.522576 -1.306423,0.522576 -0.551503,0 -1.009915,-0.205336 -1.306424,-0.634553 -0.296576,-0.429217 -0.410592,-1.082563 -0.410592,-1.940997 0,-0.858428 0.116632,-1.5283 0.410592,-1.978328 0.293893,-0.450022 0.701132,-0.671877 1.231777,-0.671884 z M 32.27336,51.647246 c -0.44748,0 -0.7737,0.112232 -1.007835,0.335939 -0.234136,0.223713 -0.373303,0.570811 -0.373303,1.007828 0,0.421411 0.134003,0.738979 0.373303,0.970499 0.239299,0.23152 0.570818,0.335939 1.007835,0.335939 0.426622,0 0.768469,-0.09922 1.007836,-0.335939 0.2393,-0.236718 0.335878,-0.559491 0.335945,-0.970499 -6.7e-5,-0.426614 -0.09926,-0.778911 -0.335945,-1.007828 -0.236751,-0.228905 -0.57605,-0.335939 -1.007836,-0.335939 z"
   id="path3805-1-4"
   style="font-size:13.38045883px;font-style:normal;font-variant:normal;font-weight:bold;font-stretch:normal;line-height:125%;letter-spacing:0px;word-spacing:0px;fill:#63c0c1;fill-opacity:1;stroke:none;font-family:Open Sans;-inkscape-font-specification:Open Sans Bold" /></svg>