<?xml version="1.0" encoding="UTF-8" standalone="no"?>
<!-- Generator: Adobe Illustrator 15.0.0, SVG Export Plug-In . SVG Version: 6.00 Build 0)  -->

<svg
   xmlns:dc="http://purl.org/dc/elements/1.1/"
   xmlns:cc="http://creativecommons.org/ns#"
   xmlns:rdf="http://www.w3.org/1999/02/22-rdf-syntax-ns#"
   xmlns:svg="http://www.w3.org/2000/svg"
   xmlns="http://www.w3.org/2000/svg"
   xmlns:sodipodi="http://sodipodi.sourceforge.net/DTD/sodipodi-0.dtd"
   xmlns:inkscape="http://www.inkscape.org/namespaces/inkscape"
   version="1.1"
   id="Layer_1"
   x="0px"
   y="0px"
   width="93.596px"
   height="93.83px"
   viewBox="0 0 93.596 93.83"
   enable-background="new 0 0 93.596 93.83"
   xml:space="preserve"
   inkscape:version="0.48.2 r9819"
   sodipodi:docname="email.svg"><metadata
   id="metadata4031"><rdf:RDF><cc:Work
       rdf:about=""><dc:format>image/svg+xml</dc:format><dc:type
         rdf:resource="http://purl.org/dc/dcmitype/StillImage" /><dc:title></dc:title></cc:Work></rdf:RDF></metadata><defs
   id="defs4029" /><sodipodi:namedview
   pagecolor="#ffffff"
   bordercolor="#666666"
   borderopacity="1"
   objecttolerance="10"
   gridtolerance="10"
   guidetolerance="10"
   inkscape:pageopacity="0"
   inkscape:pageshadow="2"
   inkscape:window-width="1366"
   inkscape:window-height="706"
   id="namedview4027"
   showgrid="false"
   inkscape:zoom="2.515187"
   inkscape:cx="46.798"
   inkscape:cy="46.915001"
   inkscape:window-x="-8"
   inkscape:window-y="-8"
   inkscape:window-maximized="1"
   inkscape:current-layer="Layer_1" />
<g
   id="g3999">
	<g
   id="g4001">
		<g
   id="g4003">
			
		</g>
	</g>
	<g
   id="g4007">
		<g
   id="g4009">
			<polygon
   stroke-miterlimit="10"
   points="23.49,35.535 23.49,39.157      20.551,37.348    "
   id="polygon4011"
   stroke-width="1.9502"
   stroke="#FFFFFF"
   fill="none" />
			<polygon
   stroke-miterlimit="10"
   points="61.289,30.368 31.863,30.368      46.574,21.293    "
   id="polygon4013"
   stroke-width="2.3402"
   stroke="#FFFFFF"
   fill="none" />
			<polygon
   stroke-miterlimit="10"
   points="72.602,37.348 69.859,39.036      69.859,35.659    "
   id="polygon4015"
   stroke-width="1.9502"
   stroke="#FFFFFF"
   fill="none" />
			<polyline
   stroke-miterlimit="10"
   points="23.49,39.157 37.765,47.964      46.574,53.396 55.389,47.964 69.859,39.036    "
   id="polyline4017"
   stroke-width="1.9502"
   stroke="#FFFFFF"
   fill="none" />
			<polyline
   stroke-miterlimit="10"
   points="73.137,37.348 73.137,67.5      20.139,67.5 20.139,37.348    "
   id="polyline4019"
   stroke-width="2.3402"
   stroke="#FFFFFF"
   fill="none" />
			<polygon
   stroke-miterlimit="10"
   points="69.859,30.368 69.859,39.036      55.389,47.964 46.574,53.396 37.765,47.964 23.49,39.157 23.49,30.368    "
   id="polygon4021"
   stroke-width="1.4041"
   stroke="#FFFFFF"
   fill="#FFFFFF" />
		</g>
		<g
   id="g4023">
			<path
   d="M54.338,40.373c-0.055,1.217-0.439,2.262-1.157,3.141c-0.714,0.881-1.786,1.322-3.213,1.322     c-0.469,0-0.872-0.124-1.217-0.368c-0.343-0.246-0.587-0.588-0.729-1.026c-0.265,0.457-0.594,0.799-0.99,1.026     c-0.393,0.229-0.857,0.343-1.385,0.343c-0.847,0-1.499-0.331-1.954-0.994c-0.455-0.663-0.621-1.541-0.501-2.632     c0.148-1.413,0.583-2.548,1.297-3.399c0.71-0.853,1.577-1.278,2.593-1.278c0.697,0,1.259,0.072,1.683,0.217     c0.424,0.145,0.889,0.367,1.393,0.67l-0.023,0.031h0.041l-0.459,4.786c-0.043,0.531,0,0.891,0.127,1.087     c0.125,0.194,0.299,0.294,0.514,0.294c0.693,0,1.247-0.305,1.666-0.913c0.419-0.605,0.651-1.375,0.699-2.306     c0.097-1.965-0.314-3.499-1.232-4.602c-0.918-1.103-2.335-1.653-4.254-1.653c-1.825,0-3.279,0.592-4.367,1.779     c-1.092,1.185-1.68,2.777-1.77,4.769c-0.103,1.977,0.336,3.539,1.316,4.677c0.981,1.141,2.394,1.712,4.234,1.712     c0.51,0,1.039-0.055,1.582-0.166c0.547-0.112,1.014-0.249,1.403-0.418l0.344,1.23c-0.402,0.232-0.914,0.415-1.539,0.545     c-0.621,0.131-1.23,0.197-1.824,0.197c-2.385,0-4.223-0.693-5.512-2.08c-1.291-1.388-1.885-3.285-1.783-5.698     c0.109-2.376,0.876-4.281,2.307-5.709c1.429-1.429,3.31-2.143,5.645-2.143c2.33,0,4.112,0.676,5.354,2.026     C53.863,36.19,54.433,38.036,54.338,40.373z M45.221,41.178c-0.059,0.709-0.005,1.248,0.166,1.613     c0.172,0.366,0.452,0.548,0.838,0.548c0.335,0,0.642-0.072,0.914-0.219c0.274-0.145,0.52-0.412,0.735-0.806     c0-0.019,0-0.038,0-0.051c0-0.014,0.004-0.032,0.01-0.055l0.397-4.158c-0.141-0.038-0.278-0.068-0.417-0.091     c-0.137-0.023-0.28-0.033-0.433-0.033c-0.666,0-1.177,0.269-1.523,0.808C45.559,39.274,45.33,40.086,45.221,41.178z"
   id="path4025"
   fill="#EB6D6F" />
		</g>
	</g>
</g>
</svg>