<?xml version="1.0" encoding="UTF-8" standalone="no"?>
<!-- Created with Inkscape (http://www.inkscape.org/) -->

<svg
   xmlns:dc="http://purl.org/dc/elements/1.1/"
   xmlns:cc="http://creativecommons.org/ns#"
   xmlns:rdf="http://www.w3.org/1999/02/22-rdf-syntax-ns#"
   xmlns:svg="http://www.w3.org/2000/svg"
   xmlns="http://www.w3.org/2000/svg"
   xmlns:sodipodi="http://sodipodi.sourceforge.net/DTD/sodipodi-0.dtd"
   xmlns:inkscape="http://www.inkscape.org/namespaces/inkscape"
   version="1.1"
   width="66"
   height="66"
   id="svg9502"
   inkscape:version="0.48.2 r9819"
   sodipodi:docname="eye.svg">
  <sodipodi:namedview
     pagecolor="#ffffff"
     bordercolor="#666666"
     borderopacity="1"
     objecttolerance="10"
     gridtolerance="10"
     guidetolerance="10"
     inkscape:pageopacity="0"
     inkscape:pageshadow="2"
     inkscape:window-width="1366"
     inkscape:window-height="706"
     id="namedview7"
     showgrid="false"
     inkscape:zoom="3.337544"
     inkscape:cx="13.450585"
     inkscape:cy="21.92756"
     inkscape:window-x="-8"
     inkscape:window-y="287"
     inkscape:window-maximized="1"
     inkscape:current-layer="svg9502" />
  <defs
     id="defs9504" />
  <metadata
     id="metadata9507">
    <rdf:RDF>
      <cc:Work
         rdf:about="">
        <dc:format>image/svg+xml</dc:format>
        <dc:type
           rdf:resource="http://purl.org/dc/dcmitype/StillImage" />
        <dc:title></dc:title>
      </cc:Work>
    </rdf:RDF>
  </metadata>
  <g
     transform="matrix(0.29044822,0,0,0.29044822,4.8124097,-242.67141)"
     id="layer1"
     style="fill:#ffffff">
    <path
       inkscape:connector-curvature="0"
       d="m 97.333136,906.03058 c -28.542961,-0.39006 -56.185228,14.08491 -83.053682,44.34632 47.457963,58.3665 113.000956,69.9478 171.441096,0.76172 -30.40508,-29.47534 -59.84445,-44.71939 -88.387414,-45.10804 z m 0,9.44829 c 19.531804,0 35.507374,15.82348 35.507374,35.35494 0,19.53209 -15.97557,35.35507 -35.507374,35.35507 -19.531792,0 -35.354965,-15.82298 -35.354965,-35.35507 0,-19.53146 15.823173,-35.35494 35.354965,-35.35494 z m 1.37152,27.27848 c -4.819964,0 -8.686337,3.86616 -8.686337,8.68608 0,4.82004 3.866373,8.68658 8.686337,8.68658 4.819994,0 8.838754,-3.86654 8.838754,-8.68658 0,-4.81992 -4.01876,-8.68608 -8.838754,-8.68608 z"
       id="path8724"
       style="fill:#ffffff;" />
  </g>
  <text
     xml:space="preserve"
     style="font-size:83.97695923px;font-style:normal;font-variant:normal;font-weight:normal;font-stretch:normal;line-height:125%;letter-spacing:0px;word-spacing:0px;fill:#000000;fill-opacity:1;stroke:none;font-family:Museo Sans 300;-inkscape-font-specification:Museo Sans 300"
     x="18.336067"
     y="54.823162"
     id="text2983"
     sodipodi:linespacing="125%"><tspan
       sodipodi:role="line"
       id="tspan2985"
       x="18.336067"
       y="54.823162">a</tspan></text>
</svg>
