<?xml version="1.0" encoding="UTF-8" standalone="no"?>
<!-- Created with Inkscape (http://www.inkscape.org/) -->

<svg
   xmlns:dc="http://purl.org/dc/elements/1.1/"
   xmlns:cc="http://creativecommons.org/ns#"
   xmlns:rdf="http://www.w3.org/1999/02/22-rdf-syntax-ns#"
   xmlns:svg="http://www.w3.org/2000/svg"
   xmlns="http://www.w3.org/2000/svg"
   version="1.1"
   width="70"
   height="70"
   viewBox="0 0 69.999999 69.999999"
   id="Layer_1"
   xml:space="preserve"><metadata
   id="metadata25"><rdf:RDF><cc:Work
       rdf:about=""><dc:format>image/svg+xml</dc:format><dc:type
         rdf:resource="http://purl.org/dc/dcmitype/StillImage" /><dc:title></dc:title></cc:Work></rdf:RDF></metadata><defs
   id="defs23" />

<path
   d="m 23.123561,16.164154 0,2.793355 -7.665484,0 c -0.683064,0 -1.234273,0.551208 -1.234273,1.234272 l 0,32.968078 c 0,0.683065 0.551209,1.234273 1.234273,1.234273 l 39.269366,0 c 0.683064,0 1.234273,-0.551208 1.234273,-1.234273 l 0,-32.968078 c 0,-0.683064 -0.551209,-1.234272 -1.234273,-1.234272 l -7.438118,0 0,-2.793355 -3.183125,0 0,2.793355 -17.929437,0 0,-2.793355 -3.053202,0 z m -6.333768,12.700018 36.476011,0 0,23.256299 -36.476011,0 0,-23.256299 z m 12.277767,3.637857 c -0.433774,1.5e-5 -0.840945,0.04171 -1.234273,0.129924 -0.393337,0.08823 -0.777189,0.196162 -1.10435,0.324808 -0.327168,0.128674 -0.59514,0.257448 -0.812021,0.389771 -0.216887,0.132349 -0.366509,0.247623 -0.454732,0.324808 -0.08822,0.07721 -0.133,0.143436 -0.162405,0.194885 -0.02941,0.05148 -0.07907,0.103596 -0.09744,0.162405 -0.01838,0.05883 -0.0251,0.146512 -0.03248,0.227366 -0.0074,0.08088 -2e-6,0.149579 0,0.259847 0,0.154405 0.01777,0.311983 0.03248,0.422251 0.01471,0.110292 0.0068,0.19369 0.03248,0.259847 0.02572,0.06618 0.05701,0.100529 0.09744,0.129923 0.04044,0.02942 0.110944,0.06497 0.162405,0.06496 0.08822,1.1e-5 0.209643,-0.06989 0.38977,-0.194885 0.180122,-0.124972 0.413747,-0.275199 0.682098,-0.422251 0.268345,-0.147029 0.585369,-0.264774 0.941945,-0.389771 0.356568,-0.124967 0.753315,-0.194871 1.201792,-0.194885 0.3823,1.4e-5 0.71282,0.06991 1.006907,0.194885 0.294074,0.124997 0.552224,0.274017 0.74706,0.487213 0.194822,0.21322 0.31931,0.464019 0.422251,0.74706 0.10292,0.283064 0.162397,0.593339 0.162404,0.909464 -10e-6,0.316148 -0.03128,0.646668 -0.09744,1.006907 -0.06618,0.360258 -0.212727,0.760679 -0.422251,1.201792 -0.20954,0.441129 -0.491009,0.924949 -0.876984,1.461639 -0.385986,0.536703 -0.88698,1.142549 -1.5266,1.818928 l -2.793355,2.955759 c -0.08822,0.09558 -0.139745,0.175303 -0.194885,0.259847 -0.05515,0.08455 -0.125641,0.175303 -0.162404,0.259847 -0.03676,0.08455 -0.05393,0.182049 -0.06496,0.292328 -0.01104,0.110281 -10e-7,0.242731 0,0.38977 0,0.161745 0.0068,0.279491 0.03248,0.38977 0.02573,0.110282 0.07478,0.201028 0.129923,0.259847 0.05514,0.05882 0.11769,0.104189 0.194885,0.129924 0.0772,0.02573 0.156917,0.03248 0.259847,0.03248 l 7.89285,0 c 0.06616,0 0.107255,6.03e-4 0.162405,-0.03248 0.05513,-0.03308 0.12931,-0.09256 0.162404,-0.162404 0.03307,-0.06985 0.04657,-0.156917 0.06496,-0.259847 0.01832,-0.102931 0.03247,-0.224953 0.03248,-0.35729 -1.1e-5,-0.132335 -0.01412,-0.258038 -0.03248,-0.357289 -0.01839,-0.09925 -0.05702,-0.161199 -0.09744,-0.227366 -0.04044,-0.06617 -0.07479,-0.129321 -0.129923,-0.162405 -0.05515,-0.03307 -0.103596,-0.06496 -0.162405,-0.06496 l -6.236326,0 2.273661,-2.338622 c 0.816068,-0.838125 1.45626,-1.597872 1.948852,-2.241179 0.492577,-0.643294 0.875825,-1.228291 1.13683,-1.753967 0.260987,-0.525661 0.438809,-1.00948 0.519694,-1.461639 0.08086,-0.452139 0.129914,-0.908361 0.129923,-1.364196 -9e-6,-0.507279 -0.09076,-0.980674 -0.259846,-1.429158 C 32.76368,34.327229 32.495105,33.944585 32.153245,33.606378 31.811367,33.2682 31.4048,32.989199 30.886491,32.794357 30.368167,32.599547 29.758646,32.502044 29.067563,32.502029 z m 11.465745,0 c -0.470534,1.5e-5 -0.891202,0.04171 -1.299235,0.129924 -0.408039,0.08823 -0.791892,0.196162 -1.104349,0.324808 -0.312464,0.128674 -0.566335,0.257448 -0.779541,0.389771 -0.213211,0.132349 -0.352404,0.254972 -0.422251,0.324808 -0.06985,0.06986 -0.133,0.110955 -0.162404,0.162405 -0.02942,0.05148 -0.04291,0.132407 -0.06496,0.194885 -0.02206,0.06251 -0.0251,0.110352 -0.03248,0.194885 -0.0074,0.08456 -0.03248,0.18206 -0.03248,0.292328 -10e-6,0.161756 0.02145,0.290529 0.03248,0.38977 0.01103,0.09926 0.03923,0.204718 0.06496,0.259847 0.02573,0.05515 0.05701,0.07908 0.09744,0.09744 0.04044,0.01842 0.07846,0.03249 0.129924,0.03248 0.07352,1.2e-5 0.205967,-0.06621 0.38977,-0.194885 0.183797,-0.128648 0.402719,-0.275198 0.682098,-0.422251 0.279373,-0.147029 0.585369,-0.293578 0.941945,-0.422251 0.356568,-0.128642 0.775371,-0.194872 1.201792,-0.194885 0.389652,1.3e-5 0.709145,0.08094 1.006907,0.194885 0.29775,0.113969 0.555901,0.25624 0.74706,0.454732 0.191145,0.198517 0.326669,0.446242 0.422251,0.714579 0.09557,0.26836 0.162397,0.550434 0.162405,0.844502 -8e-6,0.404372 -0.08401,0.744714 -0.227366,1.071869 -0.143372,0.327174 -0.348795,0.609246 -0.617137,0.844502 -0.268354,0.235273 -0.588451,0.427199 -0.974426,0.552175 -0.385986,0.124989 -0.814006,0.194893 -1.299234,0.194885 l -1.266754,0 c -0.06617,0 -0.110944,0.0068 -0.162404,0.03248 -0.05147,0.02573 -0.121973,0.07479 -0.162405,0.129924 -0.04044,0.05515 -0.04291,0.135473 -0.06496,0.227366 -0.02206,0.09191 -0.03248,0.185128 -0.03248,0.324808 0,0.1544 0.0068,0.294199 0.03248,0.389771 0.02573,0.09558 0.057,0.168557 0.09744,0.227366 0.04043,0.05883 0.07478,0.104198 0.129924,0.129923 0.05514,0.02575 0.136066,0.03249 0.194885,0.03248 l 1.331715,0 c 0.566101,6e-6 1.081799,0.06991 1.526601,0.194885 0.444791,0.124991 0.831715,0.284436 1.13683,0.519694 0.305102,0.235271 0.524022,0.521019 0.682098,0.844503 0.158057,0.323493 0.227359,0.699992 0.227366,1.104349 -7e-6,0.367604 -0.03743,0.69445 -0.162404,1.006907 -0.124992,0.312464 -0.334694,0.584111 -0.584656,0.812021 -0.249974,0.227914 -0.541869,0.427192 -0.909464,0.552175 -0.367606,0.124988 -0.814007,0.162405 -1.299234,0.162404 -0.499942,10e-7 -0.956164,-0.04477 -1.364197,-0.162404 -0.40804,-0.117631 -0.766762,-0.253757 -1.071868,-0.38977 -0.305111,-0.13601 -0.552233,-0.272137 -0.74706,-0.389771 -0.19483,-0.117629 -0.323603,-0.162402 -0.389771,-0.162404 -0.09558,2e-6 -0.175905,0.05948 -0.227366,0.162404 -0.05146,0.102931 -0.06496,0.287504 -0.06496,0.552175 -1.1e-5,0.154394 0.02145,0.283168 0.03248,0.38977 0.01103,0.106606 0.01042,0.186331 0.03248,0.259847 0.02206,0.07352 0.06804,0.143425 0.09744,0.194885 0.02942,0.05146 0.0423,0.110945 0.09744,0.162405 0.05514,0.05146 0.209041,0.113411 0.422251,0.227366 0.213206,0.113957 0.48853,0.218205 0.812021,0.324809 0.323486,0.106604 0.688958,0.215132 1.10435,0.292327 0.415385,0.07721 0.85383,0.129924 1.331715,0.129924 0.786661,0 1.486329,-0.122628 2.111257,-0.324809 0.624913,-0.202181 1.165136,-0.46955 1.591562,-0.844502 0.426408,-0.374952 0.746504,-0.838525 0.974426,-1.364197 0.227902,-0.525666 0.324798,-1.132114 0.324808,-1.786447 -1e-5,-0.448469 -0.06196,-0.840935 -0.227366,-1.234273 -0.16543,-0.393327 -0.388027,-0.7453 -0.682098,-1.039388 -0.294089,-0.294074 -0.66384,-0.552224 -1.071868,-0.74706 -0.408045,-0.194821 -0.839137,-0.305819 -1.331716,-0.357289 l 0,-0.03248 c 0.433763,-0.08086 0.805983,-0.212711 1.136831,-0.422251 0.330832,-0.209524 0.616581,-0.481776 0.844502,-0.779541 0.227903,-0.297748 0.402052,-0.620917 0.519694,-1.006907 0.117619,-0.38597 0.162395,-0.81827 0.162404,-1.266754 -9e-6,-0.521981 -0.09444,-0.999053 -0.259847,-1.429158 -0.165429,-0.430079 -0.412551,-0.795551 -0.74706,-1.104349 C 43.18702,33.167684 42.7872,32.930986 42.287272,32.761876 41.787327,32.592797 41.19498,32.502044 40.533305,32.502029 z"
   id="rect3002"
   style="fill:#ffffff;fill-opacity:1;stroke:#1a1a1a;stroke-width:0;stroke-linecap:round;stroke-linejoin:round;stroke-miterlimit:4;stroke-opacity:1;stroke-dasharray:none;stroke-dashoffset:0" /></svg>