<?xml version="1.0" encoding="UTF-8" standalone="no"?>
<!-- Created with Inkscape (http://www.inkscape.org/) -->

<svg
   xmlns:dc="http://purl.org/dc/elements/1.1/"
   xmlns:cc="http://creativecommons.org/ns#"
   xmlns:rdf="http://www.w3.org/1999/02/22-rdf-syntax-ns#"
   xmlns:svg="http://www.w3.org/2000/svg"
   xmlns="http://www.w3.org/2000/svg"
   version="1.1"
   width="60"
   height="60"
   id="svg2">
  <defs
     id="defs4" />
  <metadata
     id="metadata7">
    <rdf:RDF>
      <cc:Work
         rdf:about="">
        <dc:format>image/svg+xml</dc:format>
        <dc:type
           rdf:resource="http://purl.org/dc/dcmitype/StillImage" />
        <dc:title></dc:title>
      </cc:Work>
    </rdf:RDF>
  </metadata>
  <path
     d="m 41.546875,14.453125 c -1.832379,0 -3.3125,1.480121 -3.3125,3.3125 0,1.832379 1.480121,3.3125 3.3125,3.3125 l 6,0 c 1.832379,0 3.28125,-1.480121 3.28125,-3.3125 0,-1.832379 -1.448871,-3.3125 -3.28125,-3.3125 l -6,0 z m -29.0625,0.125 c -1.832379,0 -3.3125002,1.448871 -3.3125002,3.28125 0,1.832379 1.4801212,3.3125 3.3125002,3.3125 l 5.96875,0 c 1.832379,0 3.3125,-1.480121 3.3125,-3.3125 0,-1.832379 -1.480121,-3.28125 -3.3125,-3.28125 l -5.96875,0 z m 14.5,0 c -1.832379,0 -3.28125,1.448871 -3.28125,3.28125 0,1.832379 1.448871,3.3125 3.28125,3.3125 l 6,0 c 1.832379,0 3.3125,-1.480121 3.3125,-3.3125 0,-1.832379 -1.480121,-3.28125 -3.3125,-3.28125 l -6,0 z m 14.5625,7.875 c -1.832379,0 -3.3125,1.480121 -3.3125,3.3125 0,1.832379 1.480121,3.3125 3.3125,3.3125 l 6,0 c 1.832379,0 3.28125,-1.480121 3.28125,-3.3125 0,-1.832379 -1.448871,-3.3125 -3.28125,-3.3125 l -6,0 z m -29.0625,0.125 c -1.832379,0 -3.3125002,1.480121 -3.3125002,3.3125 0,1.832379 1.4801212,3.3125 3.3125002,3.3125 l 5.96875,0 c 1.832379,0 3.3125,-1.480121 3.3125,-3.3125 0,-1.832379 -1.480121,-3.3125 -3.3125,-3.3125 l -5.96875,0 z m 14.5,0 c -1.832379,0 -3.28125,1.480121 -3.28125,3.3125 0,1.832379 1.448871,3.3125 3.28125,3.3125 l 6,0 c 1.832379,0 3.3125,-1.480121 3.3125,-3.3125 0,-1.832379 -1.480121,-3.3125 -3.3125,-3.3125 l -6,0 z m 14.5625,8.25 c -1.832379,0 -3.3125,1.448871 -3.3125,3.28125 0,1.832379 1.480121,3.3125 3.3125,3.3125 l 6,0 c 1.832379,0 3.28125,-1.480121 3.28125,-3.3125 0,-1.832379 -1.448871,-3.28125 -3.28125,-3.28125 l -6,0 z m -29.0625,0.09375 c -1.832379,0 -3.3125002,1.480121 -3.3125002,3.3125 0,1.832379 1.4801212,3.3125 3.3125002,3.3125 l 5.96875,0 c 1.832379,0 3.3125,-1.480121 3.3125,-3.3125 0,-1.832379 -1.480121,-3.3125 -3.3125,-3.3125 l -5.96875,0 z m 14.5,0 c -1.832379,0 -3.28125,1.480121 -3.28125,3.3125 0,1.832379 1.448871,3.3125 3.28125,3.3125 l 6,0 c 1.832379,0 3.3125,-1.480121 3.3125,-3.3125 0,-1.832379 -1.480121,-3.3125 -3.3125,-3.3125 l -6,0 z m 14.5625,7.90625 c -1.832379,0 -3.3125,1.480121 -3.3125,3.3125 0,1.832379 1.480121,3.28125 3.3125,3.28125 l 6,0 c 1.832379,0 3.28125,-1.448871 3.28125,-3.28125 0,-1.832379 -1.448871,-3.3125 -3.28125,-3.3125 l -6,0 z m -29.0625,0.125 c -1.832379,0 -3.3125002,1.448871 -3.3125002,3.28125 0,1.832379 1.4801212,3.3125 3.3125002,3.3125 l 5.96875,0 c 1.832379,0 3.3125,-1.480121 3.3125,-3.3125 0,-1.832379 -1.480121,-3.28125 -3.3125,-3.28125 l -5.96875,0 z m 14.5,0 c -1.832379,0 -3.28125,1.448871 -3.28125,3.28125 0,1.832379 1.448871,3.3125 3.28125,3.3125 l 6,0 c 1.832379,0 3.3125,-1.480121 3.3125,-3.3125 0,-1.832379 -1.480121,-3.28125 -3.3125,-3.28125 l -6,0 z"
     id="rect2999"
     style="fill:#ffffff;fill-opacity:1;stroke:#1a1a1a;stroke-width:0;stroke-linecap:round;stroke-linejoin:round;stroke-miterlimit:4;stroke-opacity:1;stroke-dasharray:none;stroke-dashoffset:0" />
</svg>
