<?xml version="1.0" encoding="utf-8"?>
<!-- Generator: Adobe Illustrator 18.1.1, SVG Export Plug-In . SVG Version: 6.00 Build 0)  -->
<!DOCTYPE svg PUBLIC "-//W3C//DTD SVG 1.1//EN" "http://www.w3.org/Graphics/SVG/1.1/DTD/svg11.dtd">
<svg version="1.1" id="Layer_1" xmlns="http://www.w3.org/2000/svg" xmlns:xlink="http://www.w3.org/1999/xlink" x="0px" y="0px"
	 viewBox="590.1 379.1 141.7 141.7" enable-background="new 590.1 379.1 141.7 141.7" xml:space="preserve">
<g>
	<circle fill="#28546D" cx="660.9" cy="450" r="70.9"/>
	<path fill="#FFFFFF" d="M694.2,435.9h-66.8c-0.6,0-1.1-0.5-1.1-1.1V428c0-0.6,0.5-1.1,1.1-1.1h66.8c0.6,0,1.1,0.5,1.1,1.1v6.9
		C695.3,435.4,694.8,435.9,694.2,435.9z"/>
	<path fill="#FFFFFF" d="M694.2,456.5h-66.8c-0.6,0-1.1-0.5-1.1-1.1v-6.9c0-0.6,0.5-1.1,1.1-1.1h66.8c0.6,0,1.1,0.5,1.1,1.1v6.9
		C695.3,456,694.8,456.5,694.2,456.5z"/>
	<path fill="#FFFFFF" d="M694.2,477.7h-66.8c-0.6,0-1.1-0.5-1.1-1.1v-6.9c0-0.6,0.5-1.1,1.1-1.1h66.8c0.6,0,1.1,0.5,1.1,1.1v6.9
		C695.3,477.2,694.8,477.7,694.2,477.7z"/>
</g>
</svg>
