<?xml version="1.0" encoding="UTF-8" standalone="no"?>
<!-- Generator: Adobe Illustrator 15.0.0, SVG Export Plug-In . SVG Version: 6.00 Build 0)  -->

<svg
   xmlns:dc="http://purl.org/dc/elements/1.1/"
   xmlns:cc="http://creativecommons.org/ns#"
   xmlns:rdf="http://www.w3.org/1999/02/22-rdf-syntax-ns#"
   xmlns:svg="http://www.w3.org/2000/svg"
   xmlns="http://www.w3.org/2000/svg"
   xmlns:sodipodi="http://sodipodi.sourceforge.net/DTD/sodipodi-0.dtd"
   xmlns:inkscape="http://www.inkscape.org/namespaces/inkscape"
   version="1.1"
   id="Layer_1"
   x="0px"
   y="0px"
   width="93.837px"
   height="93.318px"
   viewBox="0 0 93.837 93.318"
   enable-background="new 0 0 93.837 93.318"
   xml:space="preserve"
   inkscape:version="0.48.2 r9819"
   sodipodi:docname="how-to-give-feedback.svg"><metadata
   id="metadata27"><rdf:RDF><cc:Work
       rdf:about=""><dc:format>image/svg+xml</dc:format><dc:type
         rdf:resource="http://purl.org/dc/dcmitype/StillImage" /><dc:title></dc:title></cc:Work></rdf:RDF></metadata><defs
   id="defs25" /><sodipodi:namedview
   pagecolor="#ffffff"
   bordercolor="#666666"
   borderopacity="1"
   objecttolerance="10"
   gridtolerance="10"
   guidetolerance="10"
   inkscape:pageopacity="0"
   inkscape:pageshadow="2"
   inkscape:window-width="1366"
   inkscape:window-height="706"
   id="namedview23"
   showgrid="false"
   inkscape:zoom="3.5765275"
   inkscape:cx="-1.1077081"
   inkscape:cy="41.269501"
   inkscape:window-x="-8"
   inkscape:window-y="287"
   inkscape:window-maximized="1"
   inkscape:current-layer="Layer_1" />

<path
   style="fill:#ffffff;stroke:#000000;stroke-width:0;stroke-linecap:butt;stroke-linejoin:miter;stroke-miterlimit:4;stroke-opacity:1;stroke-dasharray:none"
   d="m 47.156169,21.55519 -14.497821,9.209682 -9.417642,0 0,6.001147 -3.059991,1.931063 -0.207961,33.065728 53.891492,-0.207961 0,-33.659901 -2.228149,-1.366598 0,-5.763478 -9.447351,0 -15.032577,-9.209682 z m -21.835858,11.081327 44.265889,0 0.207961,7.159785 -11.616082,6.951824 -21.598189,0 -11.259579,-6.773572 0,-7.338037 z m 6.951824,8.051044 0,2.43611 30.154281,0 0,-2.43611 -30.154281,0 z m 8.348131,8.496674 13.458019,0 -6.743864,4.040377 -6.714155,-4.040377 z"
   id="path3004"
   inkscape:connector-curvature="0" /></svg>