<?xml version="1.0" encoding="utf-8"?>
<!-- Generator: Adobe Illustrator 18.1.1, SVG Export Plug-In . SVG Version: 6.00 Build 0)  -->
<!DOCTYPE svg PUBLIC "-//W3C//DTD SVG 1.1//EN" "http://www.w3.org/Graphics/SVG/1.1/DTD/svg11.dtd">
<svg version="1.1" id="Layer_1" xmlns="http://www.w3.org/2000/svg" xmlns:xlink="http://www.w3.org/1999/xlink" x="0px" y="0px"
	 viewBox="886.6 379.1 141.7 141.7" enable-background="new 886.6 379.1 141.7 141.7" xml:space="preserve">
<g>
	<circle fill="#46BAC1" cx="957.4" cy="450" r="70.9"/>
	<path fill="#FFFFFF" d="M981.6,481.3h-4.5v-10.1v-3.4c0-8.5-5.1-15.3-12.4-17.9c3.9-1.4,7.3-4,9.5-7.6c1.9-3,2.9-6.6,2.9-10.3
		v-13.4h4.5c0.6,0,1.1-0.5,1.1-1.1c0-0.6-0.5-1.1-1.1-1.1H976h-35.7h-5.6c-0.6,0-1.1,0.5-1.1,1.1c0,0.6,0.5,1.1,1.1,1.1h4.5v13.4
		c0,3.6,1,7.1,2.8,10c2.3,3.7,5.7,6.4,9.7,7.9c-7.3,2.6-12.5,9.5-12.5,17.9v3.4v10.1h-4.5c-0.6,0-1.1,0.5-1.1,1.1
		c0,0.6,0.5,1.1,1.1,1.1h5.6H976h5.6c0.6,0,1.1-0.5,1.1-1.1C982.7,481.8,982.2,481.3,981.6,481.3z M943.6,440.4l-0.1,0
		c-1.4-2.5-2.1-5.4-2.1-8.3v-13.4h33.5v13.4c0,3-0.8,5.8-2.1,8.3H943.6z M974.9,470.1h-8.5l-7.5-7.5c-0.4-0.4-1.1-0.4-1.6,0
		l-7.5,7.5h-8.5v-2.2c0-9.4,7.4-16.8,16.8-16.8c9.5,0,16.7,7.2,16.8,16.8V470.1z"/>
</g>
</svg>
