<?xml version="1.0" encoding="utf-8"?>
<!-- Generator: Adobe Illustrator 18.1.1, SVG Export Plug-In . SVG Version: 6.00 Build 0)  -->
<!DOCTYPE svg PUBLIC "-//W3C//DTD SVG 1.1//EN" "http://www.w3.org/Graphics/SVG/1.1/DTD/svg11.dtd">
<svg version="1.1" id="Layer_1" xmlns="http://www.w3.org/2000/svg" xmlns:xlink="http://www.w3.org/1999/xlink" x="0px" y="0px"
	 viewBox="590.1 529.1 141.7 141.7" enable-background="new 590.1 529.1 141.7 141.7" xml:space="preserve">
<g>
	<circle fill="#E0DE39" cx="660.9" cy="600" r="70.9"/>
	<g>
		<path fill="#275269" d="M677.1,605.8c-0.2,0.1-0.4,0.2-0.6,0.2c-0.4,0-0.7-0.2-0.9-0.5c-0.3-0.5-0.2-1.2,0.3-1.6l17.6-11.8
			l-10.1-6.8v-23c0-0.6-0.5-1.1-1.1-1.1h-42.7c-0.6,0-1.1,0.5-1.1,1.1v23l-10.1,6.8l17.6,11.8c0.5,0.3,0.7,1,0.3,1.6
			c-0.2,0.3-0.6,0.5-0.9,0.5c-0.2,0-0.4-0.1-0.6-0.2l-17.5-11.8v29.3c0,3,2.4,5.4,5.4,5.4h56.7c3,0,5.4-2.4,5.4-5.4v-29.3
			L677.1,605.8z M640.7,598.4v-34.9h40.5v34.9H640.7z M686.5,620.5c-0.2,0.3-0.5,0.4-0.9,0.4c-0.3,0-0.5-0.1-0.7-0.3l-14.3-12.1
			h-19.4l-14.3,12.1c-0.5,0.4-1.2,0.3-1.6-0.1c-0.4-0.5-0.3-1.2,0.1-1.6l14.6-12.4c0.2-0.2,0.5-0.3,0.7-0.3H671
			c0.3,0,0.5,0.1,0.7,0.3l14.6,12.4C686.9,619.3,686.9,620,686.5,620.5z"/>
		<path fill="#275269" d="M648.5,570.2h5.6c0.6,0,1.1-0.5,1.1-1.1c0-0.6-0.5-1.1-1.1-1.1h-5.6c-0.6,0-1.1,0.5-1.1,1.1
			C647.4,569.7,647.9,570.2,648.5,570.2z"/>
		<path fill="#275269" d="M673.3,574.7h-19.1c-0.6,0-1.1,0.5-1.1,1.1c0,0.6,0.5,1.1,1.1,1.1h19.1c0.6,0,1.1-0.5,1.1-1.1
			C674.4,575.2,673.9,574.7,673.3,574.7z"/>
		<path fill="#275269" d="M673.3,583.7h-24.7c-0.6,0-1.1,0.5-1.1,1.1c0,0.6,0.5,1.1,1.1,1.1h24.7c0.6,0,1.1-0.5,1.1-1.1
			C674.4,584.2,673.9,583.7,673.3,583.7z"/>
		<path fill="#275269" d="M673.3,592.7h-24.7c-0.6,0-1.1,0.5-1.1,1.1c0,0.6,0.5,1.1,1.1,1.1h24.7c0.6,0,1.1-0.5,1.1-1.1
			C674.4,593.2,673.9,592.7,673.3,592.7z"/>
	</g>
</g>
</svg>
