<?xml version="1.0" encoding="utf-8"?>
<!-- Generator: Adobe Illustrator 18.1.1, SVG Export Plug-In . SVG Version: 6.00 Build 0)  -->
<!DOCTYPE svg PUBLIC "-//W3C//DTD SVG 1.1//EN" "http://www.w3.org/Graphics/SVG/1.1/DTD/svg11.dtd">
<svg version="1.1" id="Layer_1" xmlns="http://www.w3.org/2000/svg" xmlns:xlink="http://www.w3.org/1999/xlink" x="0px" y="0px"
	 viewBox="738.1 379.1 141.7 141.7" enable-background="new 738.1 379.1 141.7 141.7" xml:space="preserve">
<g>
	<circle fill="#E0DE39" cx="809.3" cy="450" r="70.9"/>
	<path fill="#28546D" d="M829.5,435.1h-3.2v6h-1.3v-6v-0.6c0-1.4-1.8-3.2-3.2-3.2h-5.8v7h-1.3v-7v-0.6c0-1.4-1.9-1.9-3.2-1.9h-5.8
		v9.6h-1.3v-9.6v-1.9v-11.5c0-2.3-2.2-4.5-4.5-4.5s-4.5,2.2-4.5,4.5v38.7l-8.8-8.8c-1.2-1-3.1-1-4.2,0.2c-1.2,1.2-0.8,3,0.1,4.2
		c0.2,0.3,11.6,22.5,16.5,29.2h28.7l6.3-18.8c0.8-2.9,1.2-5.9,1.2-8.8v-11.5C835.3,437.3,832,435.1,829.5,435.1z"/>
</g>
</svg>
