<?xml version="1.0" encoding="UTF-8" standalone="no"?>
<!-- Created with Inkscape (http://www.inkscape.org/) -->

<svg
   xmlns:dc="http://purl.org/dc/elements/1.1/"
   xmlns:cc="http://creativecommons.org/ns#"
   xmlns:rdf="http://www.w3.org/1999/02/22-rdf-syntax-ns#"
   xmlns:svg="http://www.w3.org/2000/svg"
   xmlns="http://www.w3.org/2000/svg"
   version="1.1"
   width="93.836998"
   height="93.802002"
   viewBox="0 0 93.837 93.802"
   id="Layer_1"
   xml:space="preserve"><metadata
   id="metadata13"><rdf:RDF><cc:Work
       rdf:about=""><dc:format>image/svg+xml</dc:format><dc:type
         rdf:resource="http://purl.org/dc/dcmitype/StillImage" /><dc:title></dc:title></cc:Work></rdf:RDF></metadata><defs
   id="defs11" />

<path
   d="m 39.904917,19.755428 c -10.855978,0 -19.653723,8.797745 -19.653723,19.653723 0,10.855978 8.797745,19.653722 19.653723,19.653722 3.753016,0 7.227584,-1.078111 10.210592,-2.903011 l 15.249154,15.215785 c 1.841659,1.841659 4.798563,1.841659 6.640222,0 1.841659,-1.841659 1.841659,-4.831931 0,-6.67359 L 56.755732,49.452904 c 1.758359,-2.944017 2.802907,-6.365376 2.802907,-10.043753 0,-10.855978 -8.797744,-19.653723 -19.653722,-19.653723 z m 0,4.938457 c 8.121265,0 14.681898,6.594 14.681898,14.715266 0,8.121265 -6.560633,14.715266 -14.681898,14.715266 -8.121266,0 -14.715266,-6.594001 -14.715266,-14.715266 0,-8.121266 6.594,-14.715266 14.715266,-14.715266 z"
   id="path2990"
   style="fill:#ffffff;fill-opacity:1;stroke:#1a1a1a;stroke-width:0;stroke-linecap:round;stroke-linejoin:round;stroke-miterlimit:4;stroke-opacity:1;stroke-dasharray:none;stroke-dashoffset:0" /></svg>