<?xml version="1.0" encoding="utf-8"?>
<!-- Generator: Adobe Illustrator 18.1.1, SVG Export Plug-In . SVG Version: 6.00 Build 0)  -->
<!DOCTYPE svg PUBLIC "-//W3C//DTD SVG 1.1//EN" "http://www.w3.org/Graphics/SVG/1.1/DTD/svg11.dtd">
<svg version="1.1" id="Layer_1" xmlns="http://www.w3.org/2000/svg" xmlns:xlink="http://www.w3.org/1999/xlink" x="0px" y="0px"
	 viewBox="738.1 831.1 141.7 141.7" enable-background="new 738.1 831.1 141.7 141.7" xml:space="preserve">
<g>
	<circle fill="#E0DE3C" cx="808.9" cy="902" r="70.9"/>
	<g>
		<path fill="#2A546D" d="M848,903.4h-65.5c-1.3,0-2.3,0.8-2.3,1.9v16.8c0,1,1,1.9,2.3,1.9h55.8l9.1,5l-3.3-5h3.8
			c1.3,0,2.3-0.8,2.3-1.9v-16.8C850.2,904.2,849.2,903.4,848,903.4z"/>
		<path fill="#2A546D" d="M771.4,874.9h65.5c1.3,0,2.3,0.8,2.3,1.9v16.8c0,1-1,1.9-2.3,1.9h-55.8l-9.1,5l3.3-5h-3.8
			c-1.3,0-2.3-0.8-2.3-1.9v-16.8C769.1,875.8,770.1,874.9,771.4,874.9z"/>
	</g>
</g>
</svg>
