<?xml version="1.0" encoding="utf-8"?>
<!-- Generator: Adobe Illustrator 15.0.0, SVG Export Plug-In . SVG Version: 6.00 Build 0)  -->
<!DOCTYPE svg PUBLIC "-//W3C//DTD SVG 1.1//EN" "http://www.w3.org/Graphics/SVG/1.1/DTD/svg11.dtd">
<svg version="1.1" id="Layer_1" xmlns="http://www.w3.org/2000/svg" xmlns:xlink="http://www.w3.org/1999/xlink" x="0px" y="0px"
	 width="129.096px" height="128.249px" viewBox="0 0 129.096 128.249" enable-background="new 0 0 129.096 128.249"
	 xml:space="preserve">
<g>
	<g>
		
			<rect x="4.046" y="20.376" fill="none" stroke="#64C1C1" stroke-width="1.2124" stroke-miterlimit="10" width="103.454" height="105.07"/>
		
			<line fill="none" stroke="#64C1C1" stroke-width="1.2124" stroke-miterlimit="10" x1="4.046" y1="46.644" x2="107.5" y2="46.644"/>
		
			<line fill="none" stroke="#64C1C1" stroke-width="1.2124" stroke-miterlimit="10" x1="4.046" y1="74.138" x2="107.5" y2="74.138"/>
		
			<line fill="none" stroke="#64C1C1" stroke-width="1.2124" stroke-miterlimit="10" x1="4.046" y1="101.629" x2="107.5" y2="101.629"/>
		
			<line fill="none" stroke="#64C1C1" stroke-width="1.2124" stroke-miterlimit="10" x1="33.953" y1="20.376" x2="33.953" y2="125.446"/>
		<rect x="13.747" y="30.562" fill="#64C1C1" width="9.295" height="8.109"/>
		<rect x="13.747" y="56.908" fill="#64C1C1" width="9.295" height="8.108"/>
		<rect x="13.747" y="83.257" fill="#64C1C1" width="9.295" height="8.106"/>
		<rect x="13.747" y="109.604" fill="#64C1C1" width="9.295" height="8.106"/>
		
			<line fill="none" stroke="#64C1C1" stroke-width="3.233" stroke-miterlimit="10" x1="46.885" y1="34.508" x2="93.358" y2="34.508"/>
		
			<line fill="none" stroke="#64C1C1" stroke-width="3.233" stroke-miterlimit="10" x1="46.885" y1="60.855" x2="93.358" y2="60.855"/>
		
			<line fill="none" stroke="#64C1C1" stroke-width="3.233" stroke-miterlimit="10" x1="46.885" y1="87.203" x2="93.358" y2="87.203"/>
		
			<line fill="none" stroke="#64C1C1" stroke-width="3.233" stroke-miterlimit="10" x1="46.885" y1="113.551" x2="93.358" y2="113.551"/>
	</g>
	<g>
		<circle fill="#64C1C1" cx="106.554" cy="22.218" r="20.903"/>
		<g>
			<polygon fill="#FFFFFF" points="106.617,35.519 100.414,29.646 100.28,8.999 112.699,8.92 112.831,29.565 			"/>
			<g>
				<path fill="#64C1C1" d="M101.059,29.873c1.793-0.169,3.744-0.254,5.811-0.254c2.384,0,4.342,0.116,5.299,0.185l-3.911,3.809
					l-3.34,0.046L101.059,29.873z"/>
				<path fill="#FFFFFF" d="M106.87,29.909c1.923,0,3.569,0.076,4.63,0.142l-3.361,3.274l-3.104,0.043l-3.323-3.26
					C103.322,29.975,105.051,29.909,106.87,29.909 M106.87,29.328c-1.956,0-4.207,0.077-6.457,0.318l4.388,4.305l3.577-0.05
					l4.452-4.336C112.831,29.565,110.307,29.328,106.87,29.328L106.87,29.328z"/>
			</g>
			<path fill="#FFFFFF" d="M108.624,33.673c0,0-1.336-0.46-4.179-0.05l2.172,1.896L108.624,33.673z"/>
		</g>
		
			<line fill="none" stroke="#64C1C1" stroke-width="1.243" stroke-miterlimit="10" x1="108.624" y1="27.868" x2="108.624" y2="10.35"/>
		
			<line fill="none" stroke="#64C1C1" stroke-width="1.243" stroke-miterlimit="10" x1="104.445" y1="27.868" x2="104.445" y2="10.35"/>
	</g>
</g>
</svg>
