<?xml version="1.0" encoding="utf-8"?>
<!-- Generator: Adobe Illustrator 15.0.0, SVG Export Plug-In . SVG Version: 6.00 Build 0)  -->
<!DOCTYPE svg PUBLIC "-//W3C//DTD SVG 1.1//EN" "http://www.w3.org/Graphics/SVG/1.1/DTD/svg11.dtd">
<svg version="1.1" id="Layer_1" xmlns="http://www.w3.org/2000/svg" xmlns:xlink="http://www.w3.org/1999/xlink" x="0px" y="0px"
	 width="173.5px" height="137.667px" viewBox="0 0 173.5 137.667" enable-background="new 0 0 173.5 137.667" xml:space="preserve">
<g>
	<path fill="none" stroke="#F9D45E" stroke-width="1.3471" stroke-miterlimit="10" d="M27.036,24.079h118.17
		c2.701,0,4.889,1.801,4.889,4.029v36.02c0,2.225-2.188,4.027-4.889,4.027H47.768L28.18,78.908l7.024-10.753h-8.168
		c-2.697,0-4.886-1.802-4.886-4.027v-36.02C22.15,25.879,24.339,24.079,27.036,24.079z"/>
	<g>
		<path fill="#F9D45E" d="M1.051,22.063c0-11.543,9.357-20.903,20.904-20.903c11.54,0,20.9,9.36,20.9,20.903
			c0,11.544-9.36,20.904-20.9,20.904C10.408,42.967,1.051,33.607,1.051,22.063z"/>
		<g>
			<path fill="#FFFFFF" d="M17.321,17.391h6.377v14.529h3.28v2.452h-9.657v-2.452h3.283V19.846h-3.283V17.391z M24.313,11.421
				c0,0.335-0.067,0.656-0.201,0.957c-0.137,0.301-0.311,0.563-0.532,0.78c-0.221,0.221-0.478,0.395-0.782,0.525
				c-0.303,0.127-0.616,0.191-0.936,0.191c-0.336,0-0.652-0.064-0.95-0.191c-0.293-0.13-0.553-0.304-0.771-0.525
				c-0.219-0.217-0.396-0.479-0.522-0.78c-0.127-0.3-0.19-0.621-0.19-0.957c0-0.321,0.063-0.632,0.19-0.928
				c0.127-0.294,0.304-0.555,0.522-0.78c0.218-0.226,0.478-0.407,0.771-0.541c0.298-0.137,0.614-0.203,0.95-0.203
				c0.319,0,0.633,0.066,0.936,0.203c0.305,0.134,0.562,0.315,0.782,0.541c0.222,0.226,0.396,0.486,0.532,0.78
				C24.246,10.789,24.313,11.101,24.313,11.421z"/>
		</g>
	</g>
	
		<line fill="none" stroke="#F9D45E" stroke-width="4.6962" stroke-miterlimit="10" x1="44.435" y1="45.127" x2="132.692" y2="45.127"/>
	<path fill="none" stroke="#F9D45E" stroke-width="1.3471" stroke-miterlimit="10" d="M167.272,80.232H51.426
		c-2.699,0-4.888,1.801-4.888,4.029v36.022c0,2.226,2.188,4.025,4.888,4.025h95.114l19.588,10.753l-7.021-10.753h8.166
		c2.696,0,4.886-1.799,4.886-4.025V84.261C172.158,82.034,169.969,80.232,167.272,80.232z"/>
	
		<line fill="none" stroke="#F9D45E" stroke-width="4.6962" stroke-miterlimit="10" x1="65.8" y1="104.215" x2="154.058" y2="104.215"/>
</g>
</svg>
