<?xml version="1.0" encoding="UTF-8" standalone="no"?>
<!-- Created with Inkscape (http://www.inkscape.org/) -->

<svg
   xmlns:dc="http://purl.org/dc/elements/1.1/"
   xmlns:cc="http://creativecommons.org/ns#"
   xmlns:rdf="http://www.w3.org/1999/02/22-rdf-syntax-ns#"
   xmlns:svg="http://www.w3.org/2000/svg"
   xmlns="http://www.w3.org/2000/svg"
   xmlns:sodipodi="http://sodipodi.sourceforge.net/DTD/sodipodi-0.dtd"
   xmlns:inkscape="http://www.inkscape.org/namespaces/inkscape"
   version="1.1"
   width="70"
   height="70"
   viewBox="0 0 70 70"
   id="Layer_1"
   xml:space="preserve"
   inkscape:version="0.48.2 r9819"
   sodipodi:docname="know-your-rights.svg"><sodipodi:namedview
   pagecolor="#ffffff"
   bordercolor="#666666"
   borderopacity="1"
   objecttolerance="10"
   gridtolerance="10"
   guidetolerance="10"
   inkscape:pageopacity="0"
   inkscape:pageshadow="2"
   inkscape:window-width="1366"
   inkscape:window-height="706"
   id="namedview3797"
   showgrid="false"
   inkscape:zoom="3.3714286"
   inkscape:cx="35"
   inkscape:cy="35"
   inkscape:window-x="-8"
   inkscape:window-y="287"
   inkscape:window-maximized="1"
   inkscape:current-layer="Layer_1" /><metadata
   id="metadata21"><rdf:RDF><cc:Work
       rdf:about=""><dc:format>image/svg+xml</dc:format><dc:type
         rdf:resource="http://purl.org/dc/dcmitype/StillImage" /><dc:title></dc:title></cc:Work></rdf:RDF></metadata><defs
   id="defs19" />

<path
   d="m 33.250546,12.976288 0,2.5515 -15.658519,0 c -0.614634,0 -1.118465,0.503831 -1.118465,1.118466 l 0,22.858641 c 0,0.614635 0.503831,1.083514 1.118465,1.083514 l 15.658519,0 0,17.091553 3.425301,0 0,-17.091553 15.763376,0 c 0.614634,0 1.118465,-0.468879 1.118465,-1.083514 l 0,-22.858641 c 0,-0.614635 -0.503831,-1.118466 -1.118465,-1.118466 l -15.763376,0 0,-2.5515 -3.425301,0 z m -13.6313,4.543767 30.792758,0 c 0.273435,0 0.489328,0.215893 0.489328,0.489329 l 0,20.097429 c 0,0.273436 -0.215893,0.489329 -0.489328,0.489329 l -30.792758,0 c -0.273435,0 -0.489328,-0.215893 -0.489328,-0.489329 l 0,-20.097429 c 0,-0.273436 0.215893,-0.489329 0.489328,-0.489329 z"
   id="rect2998"
   style="fill:#ffffff;fill-opacity:1;stroke:#1a1a1a;stroke-width:0;stroke-linecap:round;stroke-linejoin:round;stroke-miterlimit:4;stroke-opacity:1;stroke-dasharray:none;stroke-dashoffset:0" /></svg>