<!-- Created with Inkscape (http://www.inkscape.org/) -->
<svg id="svg9251" xmlns:rdf="http://www.w3.org/1999/02/22-rdf-syntax-ns#" xmlns="http://www.w3.org/2000/svg" viewBox="0 0 200 200" height="100%" width="100%" version="1.1" xmlns:cc="http://creativecommons.org/ns#" xmlns:dc="http://purl.org/dc/elements/1.1/">
	<metadata id="metadata9256">
		<rdf:RDF>
			<cc:Work rdf:about="">
				<dc:format>image/svg+xml</dc:format>
				<dc:type rdf:resource="http://purl.org/dc/dcmitype/StillImage"/>
				<dc:title/>
			</cc:Work>
		</rdf:RDF>
	</metadata>
	<path id="path9261" style="stroke-linejoin:miter;fill-opacity:0;stroke-dashoffset:0;stroke:#686a6e;stroke-linecap:butt;stroke-miterlimit:4;stroke-dasharray:none;stroke-width:10;" d="m190,100a90,90,0,0,1,-180,0,90,90,0,1,1,180,0z"/>
	<path id="path10074" style="direction:ltr;enable-background:accumulate;baseline-shift:baseline;block-progression:tb;text-indent:0;color:#000000;fill:#686a6e;text-transform:none;text-align:start;" d="m76,38.031c0.25471,27.856-0.50634,55.943,0.375,83.656,7.8837,17.733,15.803,35.498,23.625,53.188,7.8282-18.267,16.675-36.425,24-54.844v-84h-48v1,1zm40,6c-0.27345,25.359,0.54514,50.949-0.40614,76.164-3.698,8.3204-7.3959,16.641-11.094,24.961-3.2743,0.87695-6.6242,1.5596-9.8438,2.5625-4.0518-9.8439-9.3044-19.449-12.631-29.437,0.63725-24.75,1.2745-49.5,1.9118-74.25h32.062z"/>
	<rect id="rect10076" style="stroke-linejoin:miter;stroke-dashoffset:0;stroke:#686a6e;stroke-linecap:butt;stroke-miterlimit:4;stroke-dasharray:none;stroke-width:2.65921569;fill:#686a6e;" height="55" width="5" y="49.998" x="90"/>
	<rect id="rect10078" style="stroke-linejoin:miter;stroke-dashoffset:0;stroke:#686a6e;stroke-linecap:butt;stroke-miterlimit:4;stroke-dasharray:none;stroke-width:2.65921569;fill:#686a6e;" height="55" width="5" y="49.998" x="105"/>
	<path id="path10103" style="baseline-shift:baseline;block-progression:tb;fill:#686a6e;color:#000000;direction:ltr;text-indent:0;text-align:start;enable-background:accumulate;text-transform:none;" d="m100,114.97c-6.8427-0.0506-13.7,1.1086-20.531,3.625l1.3621,4.011c12.67-3.4535,24.87-2.5823,38.401,0l1.2371-4.011c-6.7976-2.3009-13.626-3.5744-20.469-3.625z"/>
</svg>
