<?xml version="1.0" encoding="UTF-8" standalone="no"?>
<!-- Created with Inkscape (http://www.inkscape.org/) -->

<svg
   xmlns:dc="http://purl.org/dc/elements/1.1/"
   xmlns:cc="http://creativecommons.org/ns#"
   xmlns:rdf="http://www.w3.org/1999/02/22-rdf-syntax-ns#"
   xmlns:svg="http://www.w3.org/2000/svg"
   xmlns="http://www.w3.org/2000/svg"
   version="1.1"
   width="70"
   height="70"
   viewBox="0 0 69.999997 69.999999"
   id="Layer_1"
   xml:space="preserve"><metadata
   id="metadata31"><rdf:RDF><cc:Work
       rdf:about=""><dc:format>image/svg+xml</dc:format><dc:type
         rdf:resource="http://purl.org/dc/dcmitype/StillImage" /><dc:title></dc:title></cc:Work></rdf:RDF></metadata><defs
   id="defs29">
	
	

		
		
		
		
		
		
		
		
		
	</defs>
<path
   d="m 21.490176,13.716308 c -1.70017,0 -3.092324,1.358718 -3.126277,3.033976 -1.586944,0.526585 -2.538561,1.883589 -2.538165,4.167885 1.3e-5,0.07729 -0.02536,0.08889 -0.03096,0.09194 0.04716,6.081857 1.426454,11.60641 3.683436,15.72151 2.010525,3.665745 4.837502,6.321498 8.171656,6.926046 -0.0099,4.29981 1.614798,7.716638 4.085826,10.021312 2.784994,2.597501 6.563878,3.827496 10.245524,3.73884 3.681644,-0.08866 7.342397,-1.495673 9.781223,-4.290472 1.399007,-1.603208 2.337169,-3.666038 2.661979,-6.098597 2.861959,-0.363988 5.076331,-2.768091 5.076331,-5.700197 0,-3.178856 -2.601848,-5.761489 -5.81921,-5.761489 -3.214034,0 -5.819207,2.582633 -5.819207,5.761489 0,2.519847 1.627867,4.671362 3.900107,5.455027 -0.273758,1.887038 -1.002746,3.404942 -2.042915,4.596933 -1.854106,2.124732 -4.765618,3.298008 -7.800215,3.371083 -3.034598,0.07308 -6.131356,-0.95604 -8.326422,-3.003329 -1.968103,-1.835604 -3.273661,-4.480283 -3.219137,-8.18254 3.214067,-0.697028 5.938215,-3.3005 7.893076,-6.864752 2.256981,-4.1151 3.636268,-9.639653 3.683436,-15.721511 -0.0056,-0.0031 -0.03096,-0.01465 -0.03095,-0.09194 3.83e-4,-2.219628 -0.9069,-3.549617 -2.414353,-4.106593 -0.01713,-1.689844 -1.415454,-3.064622 -3.126277,-3.064622 -1.721476,0 -3.126277,1.390868 -3.126277,3.095268 0,1.704401 1.404801,3.095269 3.126277,3.095269 0.709224,0 1.364363,-0.248587 1.888147,-0.643571 0.435048,0.06334 1.009651,0.444161 0.959552,1.654895 -0.0051,0.122843 0.03124,0.127449 0.03095,0.153231 -0.06318,5.650857 -1.369529,10.744339 -3.342949,14.34243 -2.007252,3.659775 -4.601668,5.639119 -7.212105,5.66955 -2.495136,-0.190046 -4.951268,-2.13757 -6.87162,-5.638904 -1.973419,-3.598091 -3.279766,-8.691574 -3.342951,-14.34243 -2.86e-4,-0.02579 0.03603,-0.03039 0.03096,-0.153231 -0.05761,-1.392232 0.723152,-1.682316 1.14527,-1.654894 0.516961,0.377178 1.13481,0.612924 1.826241,0.612924 1.721475,0 3.126277,-1.390868 3.126277,-3.095269 0,-1.7044 -1.404802,-3.095268 -3.126277,-3.095268 z m 32.191369,22.678201 c 2.758064,0 4.983472,2.208986 4.983472,4.934041 0,2.448676 -1.787567,4.507504 -4.147733,4.903395 0.04171,-0.563222 0.02491,-1.147814 0,-1.746835 1.406239,-0.372383 2.445305,-1.647586 2.445305,-3.15656 0,-1.798544 -1.460714,-3.248499 -3.281044,-3.248499 -1.818444,0 -3.311996,1.449955 -3.311996,3.248499 0,1.12642 0.579022,2.141571 1.454803,2.727514 0.0555,0.654568 0.06792,1.283356 0.03095,1.869419 -1.859683,-0.727528 -3.188185,-2.504532 -3.188185,-4.596933 0,-2.725055 2.259214,-4.934041 5.014425,-4.934041 z"
   id="path3813"
   style="fill:#ffffff;stroke:#000000;stroke-width:0;stroke-miterlimit:4;stroke-dasharray:none" />
</svg>