<?xml version="1.0" encoding="utf-8"?>
<!-- Generator: Adobe Illustrator 18.1.1, SVG Export Plug-In . SVG Version: 6.00 Build 0)  -->
<!DOCTYPE svg PUBLIC "-//W3C//DTD SVG 1.1//EN" "http://www.w3.org/Graphics/SVG/1.1/DTD/svg11.dtd">
<svg version="1.1" id="Layer_1" xmlns="http://www.w3.org/2000/svg" xmlns:xlink="http://www.w3.org/1999/xlink" x="0px" y="0px"
	 viewBox="738.1 529.1 141.7 141.7" enable-background="new 738.1 529.1 141.7 141.7" xml:space="preserve">
<g>
	<circle fill="#46BAC0" cx="808.9" cy="600" r="70.9"/>
	<rect x="782.2" y="568.8" fill="#FFFFFF" width="53.4" height="65.9"/>
	<path fill="#46BAC0" d="M804.1,612.6l-7.7,7.7c-0.2,0.2-0.5,0.4-0.9,0.4c-0.3,0-0.6-0.1-0.9-0.4l-4.6-4.6c-0.5-0.5-0.5-1.2,0-1.7
		c0.5-0.5,1.2-0.5,1.7,0l3.7,3.7l6.8-6.8c0.5-0.5,1.2-0.5,1.7,0C804.6,611.4,804.6,612.2,804.1,612.6z"/>
	<path fill="#46BAC0" d="M804.1,598.9l-7.7,7.7c-0.2,0.2-0.5,0.4-0.9,0.4c-0.3,0-0.6-0.1-0.9-0.4l-4.6-4.6c-0.5-0.5-0.5-1.2,0-1.7
		c0.5-0.5,1.2-0.5,1.7,0l3.7,3.7l6.8-6.8c0.5-0.5,1.2-0.5,1.7,0C804.6,597.6,804.6,598.4,804.1,598.9z"/>
	<path fill="#46BAC0" d="M804.1,585.1l-7.7,7.7c-0.2,0.2-0.5,0.4-0.9,0.4c-0.3,0-0.6-0.1-0.9-0.4l-4.6-4.6c-0.5-0.5-0.5-1.2,0-1.7
		c0.5-0.5,1.2-0.5,1.7,0l3.7,3.7l6.8-6.8c0.5-0.5,1.2-0.5,1.7,0C804.6,583.9,804.6,584.6,804.1,585.1z"/>
	<path fill="#46BAC0" d="M827,616.8h-17.1c-0.9,0-1.7-0.5-1.7-1.2c0-0.7,0.8-1.2,1.7-1.2H827c0.9,0,1.7,0.5,1.7,1.2
		C828.7,616.3,827.9,616.8,827,616.8z"/>
	<path fill="#46BAC0" d="M827,603.8h-17.1c-0.9,0-1.7-0.5-1.7-1.2s0.8-1.2,1.7-1.2H827c0.9,0,1.7,0.5,1.7,1.2S827.9,603.8,827,603.8
		z"/>
	<path fill="#46BAC0" d="M827,591.6h-17.1c-0.9,0-1.7-0.5-1.7-1.2c0-0.7,0.8-1.2,1.7-1.2H827c0.9,0,1.7,0.5,1.7,1.2
		C828.7,591.1,827.9,591.6,827,591.6z"/>
</g>
</svg>
