<?xml version="1.0" encoding="utf-8"?>
<!-- Generator: Adobe Illustrator 18.1.1, SVG Export Plug-In . SVG Version: 6.00 Build 0)  -->
<!DOCTYPE svg PUBLIC "-//W3C//DTD SVG 1.1//EN" "http://www.w3.org/Graphics/SVG/1.1/DTD/svg11.dtd">
<svg version="1.1" id="Layer_1" xmlns="http://www.w3.org/2000/svg" xmlns:xlink="http://www.w3.org/1999/xlink" x="0px" y="0px"
	 viewBox="886.6 529.1 141.7 141.7" enable-background="new 886.6 529.1 141.7 141.7" xml:space="preserve">
<g>
	<circle fill="#2A546D" cx="957.4" cy="600" r="70.9"/>
	<g>
		<path fill="#FFFFFF" d="M921.2,607.6c0,4.2,1.9,6.9,5.1,7.5V633h15.2v-17.9c3.2-0.6,5.1-3.3,5.1-7.5v-17.8h-25.4V607.6z"/>
		<path fill="#FFFFFF" d="M933.9,587.3c5.6,0,10.2-4.6,10.2-10.2c0-5.6-4.6-10.2-10.2-10.2s-10.2,4.6-10.2,10.2
			C923.7,582.7,928.3,587.3,933.9,587.3z"/>
	</g>
	<g>
		<path fill="#FFFFFF" d="M967.1,607.6c0,4.2,1.9,6.9,5.1,7.5V633h15.2v-17.9c3.2-0.6,5.1-3.3,5.1-7.5v-17.8h-25.4V607.6z"/>
		<path fill="#FFFFFF" d="M979.8,587.3c5.6,0,10.2-4.6,10.2-10.2c0-5.6-4.6-10.2-10.2-10.2c-5.6,0-10.2,4.6-10.2,10.2
			C969.6,582.7,974.2,587.3,979.8,587.3z"/>
	</g>
</g>
</svg>
