<?xml version="1.0" encoding="utf-8"?>
<!-- Generator: Adobe Illustrator 18.1.1, SVG Export Plug-In . SVG Version: 6.00 Build 0)  -->
<!DOCTYPE svg PUBLIC "-//W3C//DTD SVG 1.1//EN" "http://www.w3.org/Graphics/SVG/1.1/DTD/svg11.dtd">
<svg version="1.1" id="Layer_1" xmlns="http://www.w3.org/2000/svg" xmlns:xlink="http://www.w3.org/1999/xlink" x="0px" y="0px"
	 viewBox="590.1 679.1 141.7 141.7" enable-background="new 590.1 679.1 141.7 141.7" xml:space="preserve">
<g>
	<circle fill="#46BAC1" cx="660.9" cy="750" r="70.9"/>
	<path fill="#FFFFFF" d="M664.7,723.5c0,0.7,0.3,1.5,0.8,2.1l20.9,22.1h-58c-1.7,0-3,1.4-3,3s1.4,3,3,3h57.7l-20.5,20.5
		c-1.2,1.2-1.2,3.1,0,4.3c1.2,1.2,3.1,1.2,4.3,0l25.7-25.7c0.1-0.1,0.3-0.3,0.4-0.5c0.1-0.1,0.1-0.2,0.2-0.3c0-0.1,0.1-0.1,0.1-0.2
		c0.1-0.2,0.1-0.4,0.2-0.5c0,0,0,0,0,0c0-0.2,0.1-0.4,0.1-0.6l0,0c0-0.1,0-0.1,0-0.2c0-0.1,0-0.3,0-0.4c0-0.1,0-0.2-0.1-0.3
		c0-0.1-0.1-0.2-0.1-0.3c0-0.1-0.1-0.2-0.1-0.3c0-0.1-0.1-0.2-0.1-0.3c-0.1-0.1-0.1-0.2-0.2-0.3c0-0.1-0.1-0.1-0.1-0.2l-25.7-27.2
		c-1.1-1.2-3.1-1.3-4.3-0.1C665,721.9,664.7,722.7,664.7,723.5z"/>
</g>
</svg>
