<?xml version="1.0" encoding="utf-8"?>
<!-- Generator: Adobe Illustrator 18.1.1, SVG Export Plug-In . SVG Version: 6.00 Build 0)  -->
<!DOCTYPE svg PUBLIC "-//W3C//DTD SVG 1.1//EN" "http://www.w3.org/Graphics/SVG/1.1/DTD/svg11.dtd">
<svg version="1.1" id="Layer_1" xmlns="http://www.w3.org/2000/svg" xmlns:xlink="http://www.w3.org/1999/xlink" x="0px" y="0px"
	 viewBox="590.1 831.1 141.7 141.7" enable-background="new 590.1 831.1 141.7 141.7" xml:space="preserve">
<g>
	<circle fill="#28546D" cx="660.9" cy="902" r="70.9"/>
	<path fill="#FFFFFF" d="M684.2,882.4L668.8,867c-0.2-0.2-0.5-0.3-0.8-0.3h-30.8c-0.6,0-1.1,0.5-1.1,1.1v63.7c0,0.6,0.5,1.1,1.1,1.1
		h46.1c0.6,0,1.1-0.5,1.1-1.1v-48.3C684.5,882.9,684.4,882.6,684.2,882.4z M648.5,886.5H661c0.6,0,1.1,0.5,1.1,1.1s-0.5,1.1-1.1,1.1
		h-12.5c-0.6,0-1.1-0.5-1.1-1.1S647.9,886.5,648.5,886.5z M673.4,923.8h-24.9c-0.6,0-1.1-0.5-1.1-1.1c0-0.6,0.5-1.1,1.1-1.1h24.9
		c0.6,0,1.1,0.5,1.1,1.1C674.5,923.3,674,923.8,673.4,923.8z M673.4,915h-24.9c-0.6,0-1.1-0.5-1.1-1.1s0.5-1.1,1.1-1.1h24.9
		c0.6,0,1.1,0.5,1.1,1.1S674,915,673.4,915z M673.4,906.2h-24.9c-0.6,0-1.1-0.5-1.1-1.1s0.5-1.1,1.1-1.1h24.9c0.6,0,1.1,0.5,1.1,1.1
		S674,906.2,673.4,906.2z M673.4,897.5h-24.9c-0.6,0-1.1-0.5-1.1-1.1s0.5-1.1,1.1-1.1h24.9c0.6,0,1.1,0.5,1.1,1.1
		S674,897.5,673.4,897.5z M668,883.2v-15.4l15.4,15.4H668z"/>
</g>
</svg>
