<?xml version="1.0" encoding="utf-8"?>
<!-- Generator: Adobe Illustrator 18.1.1, SVG Export Plug-In . SVG Version: 6.00 Build 0)  -->
<!DOCTYPE svg PUBLIC "-//W3C//DTD SVG 1.1//EN" "http://www.w3.org/Graphics/SVG/1.1/DTD/svg11.dtd">
<svg version="1.1" id="Layer_1" xmlns="http://www.w3.org/2000/svg" xmlns:xlink="http://www.w3.org/1999/xlink" x="0px" y="0px"
	 viewBox="441.4 379.1 141.7 141.7" enable-background="new 441.4 379.1 141.7 141.7" xml:space="preserve">
<g>
	<path fill="#46BAC1" d="M512.3,379.1c-39.1,0-70.9,31.8-70.9,70.9s31.8,70.9,70.9,70.9s70.9-31.8,70.9-70.9
		S551.3,379.1,512.3,379.1z"/>
	<path fill="#FFFFFF" stroke="#FFFFFF" stroke-width="0.5" stroke-miterlimit="10" d="M513.1,484.1c-1.8,0-3.3-1.5-3.3-3.3
		s1.5-3.3,3.3-3.3c1.8,0,3.3,1.5,3.3,3.3S514.9,484.1,513.1,484.1z"/>
	<path fill="#FFFFFF" stroke="#FFFFFF" stroke-width="0.5" stroke-miterlimit="10" d="M515.7,453.9v13.2c0,1.4-1.2,2.6-2.6,2.6
		s-2.6-1.2-2.6-2.6v-15.6c0-1.4,1.2-2.6,2.6-2.6c7.2,0,13-5.8,13-13c0-7.2-5.8-13-13-13s-13,5.8-13,13c0,1.4-1.2,2.6-2.6,2.6
		s-2.6-1.2-2.6-2.6c0-10.1,8.2-18.2,18.2-18.2c10.1,0,18.2,8.2,18.2,18.2C531.4,445,524.6,452.6,515.7,453.9z"/>
</g>
</svg>
