<?xml version="1.0" encoding="utf-8"?>
<!-- Generator: Adobe Illustrator 18.1.1, SVG Export Plug-In . SVG Version: 6.00 Build 0)  -->
<!DOCTYPE svg PUBLIC "-//W3C//DTD SVG 1.1//EN" "http://www.w3.org/Graphics/SVG/1.1/DTD/svg11.dtd">
<svg version="1.1" id="Layer_1" xmlns="http://www.w3.org/2000/svg" xmlns:xlink="http://www.w3.org/1999/xlink" x="0px" y="0px"
	 viewBox="441.4 831.1 141.7 141.7" enable-background="new 441.4 831.1 141.7 141.7" xml:space="preserve">
<g>
	<circle fill="#46BAC1" cx="512.3" cy="902" r="70.9"/>
	<g>
		<path fill="#FFFFFF" d="M543.7,889.4h-1.3v-17.5c0-0.4-0.2-0.8-0.6-1.1c-0.4-0.2-0.8-0.3-1.2-0.1l-0.7,0.4
			c-10,5-19.6,9.8-37.7,11.4v28.2c0,0.2,0,0.4,0,0.6c17,1.6,26.3,6.3,36.1,11.2l2.2,1.1c0.2,0.1,0.4,0.1,0.6,0.1
			c0.2,0,0.5-0.1,0.7-0.2c0.4-0.2,0.6-0.6,0.6-1.1v-18.1h1.3c3.5,0,6.3-2.5,6.3-5.6v-3.2C549.9,892.3,547,889.4,543.7,889.4z
			 M547.4,898.8c0,1.9-1.9,3.1-3.8,3.1h-1.3v-10.1h1.3c1.9,0,3.8,1.8,3.8,3.8V898.8z"/>
		<path fill="#FFFFFF" d="M494.7,883c-2,0.1-4.1,0.1-6.3,0.1h-3.8c-5.6,0-10.1,5-10.1,11.3v6.3c0,5.9,4.1,10.1,10.1,10.1h3.8
			c2.2,0,4.3,0,6.3,0.1c0,0,0-0.1,0-0.1V883z"/>
		<path fill="#FFFFFF" d="M511.2,931c-6.9-3.5-11.5-11.6-11.5-20.2v-28.9c0-0.7-0.6-1.3-1.3-1.3s-1.3,0.6-1.3,1.3v28.9
			c0,9.7,5.1,18.6,12.9,22.5c0.2,0.1,0.4,0.1,0.6,0.1c0.5,0,0.9-0.3,1.1-0.7C512.1,932,511.9,931.3,511.2,931z"/>
	</g>
</g>
</svg>
