<?xml version="1.0" encoding="utf-8"?>
<!-- Generator: Adobe Illustrator 18.1.1, SVG Export Plug-In . SVG Version: 6.00 Build 0)  -->
<!DOCTYPE svg PUBLIC "-//W3C//DTD SVG 1.1//EN" "http://www.w3.org/Graphics/SVG/1.1/DTD/svg11.dtd">
<svg version="1.1" id="Layer_1" xmlns="http://www.w3.org/2000/svg" xmlns:xlink="http://www.w3.org/1999/xlink" x="0px" y="0px"
	 viewBox="441.4 529.1 141.7 141.7" enable-background="new 441.4 529.1 141.7 141.7" xml:space="preserve">
<g>
	<circle fill="#28546D" cx="512.3" cy="600" r="70.9"/>
	<path fill="#FFFFFF" d="M540.7,594.2c0.3,0,0.7-0.1,0.9-0.4l10.3-10.3c0.5-0.5,0.5-1.3,0-1.8l-10.3-10.3c-0.2-0.2-0.6-0.4-0.9-0.4
		h-26.9v-3.8c0-0.7-0.6-1.3-1.3-1.3c-0.7,0-1.3,0.6-1.3,1.3v3.8h-26.9c-0.7,0-1.3,0.6-1.3,1.3v20.5c0,0.7,0.6,1.3,1.3,1.3h26.9v5.1
		h-24.4c-0.3,0-0.7,0.1-0.9,0.4L475.7,610c-0.5,0.5-0.5,1.3,0,1.8l10.3,10.3c0.2,0.2,0.6,0.4,0.9,0.4h24.4v19.2
		c0,0.7,0.6,1.3,1.3,1.3c0.7,0,1.3-0.6,1.3-1.3v-19.2h29.5c0.7,0,1.3-0.6,1.3-1.3v-20.5c0-0.7-0.6-1.3-1.3-1.3h-29.5v-5.1H540.7z"/>
</g>
</svg>
