<?xml version="1.0" encoding="utf-8"?>
<!-- Generator: Adobe Illustrator 18.1.1, SVG Export Plug-In . SVG Version: 6.00 Build 0)  -->
<!DOCTYPE svg PUBLIC "-//W3C//DTD SVG 1.1//EN" "http://www.w3.org/Graphics/SVG/1.1/DTD/svg11.dtd">
<svg version="1.1" id="Layer_1" xmlns="http://www.w3.org/2000/svg" xmlns:xlink="http://www.w3.org/1999/xlink" x="0px" y="0px"
	 viewBox="886.6 679.1 141.7 141.7" enable-background="new 886.6 679.1 141.7 141.7" xml:space="preserve">
<g>
	<circle fill="#E0DE3C" cx="957.4" cy="750" r="70.9"/>
	<path fill="#28546D" d="M957.4,714.6c-13,0-23.6,10.6-23.6,23.6c0,12.6,21.7,42,22.7,43.3c0.2,0.3,0.5,0.5,0.9,0.5
		c0.4,0,0.7-0.2,0.9-0.5c0.9-1.2,22.7-30.7,22.7-43.3C981,725.2,970.4,714.6,957.4,714.6z M957.4,748.2c-5.6,0-10.1-4.5-10.1-10.1
		c0-5.6,4.5-10.1,10.1-10.1s10.1,4.5,10.1,10.1C967.5,743.7,963,748.2,957.4,748.2z"/>
</g>
</svg>
