<?xml version="1.0" encoding="utf-8"?>
<!-- Generator: Adobe Illustrator 18.1.1, SVG Export Plug-In . SVG Version: 6.00 Build 0)  -->
<!DOCTYPE svg PUBLIC "-//W3C//DTD SVG 1.1//EN" "http://www.w3.org/Graphics/SVG/1.1/DTD/svg11.dtd">
<svg version="1.1" id="Layer_1" xmlns="http://www.w3.org/2000/svg" xmlns:xlink="http://www.w3.org/1999/xlink" x="0px" y="0px"
	 viewBox="738.1 679.1 141.7 141.7" enable-background="new 738.1 679.1 141.7 141.7" xml:space="preserve">
<g>
	<circle fill="#28546D" cx="808.9" cy="750" r="70.9"/>
	<path fill="#FFFFFF" d="M770.8,752c0,2.2,0,4.9,1.5,6.4c0.3,0.3,0.7,0.6,1.1,0.7v12.9H786v-12.9c0.8-0.3,1.7-1.1,2.2-2.8
		c0.4-1.3,0.4-2.9,0.4-4.3v-10.5h-17.8V752z"/>
	<path fill="#FFFFFF" d="M829.3,741.6v10.2c0,2.9,1,5.2,2.5,6v14.3h12.7v-14.3c1.6-0.9,2.5-3.5,2.5-6v-10.2H829.3z"/>
	<path fill="#FFFFFF" d="M796.2,759.4c0,4.2,1.9,6.9,5.1,7.5v17.9h15.2v-17.9c3.2-0.6,5.1-3.3,5.1-7.5v-17.8h-25.4V759.4z"/>
	<path fill="#FFFFFF" d="M838.1,739c3.5,0,6.4-2.9,6.4-6.4s-2.9-6.4-6.4-6.4s-6.4,2.9-6.4,6.4S834.6,739,838.1,739z"/>
	<path fill="#FFFFFF" d="M779.7,739c3.5,0,6.4-2.9,6.4-6.4s-2.9-6.4-6.4-6.4c-3.5,0-6.4,2.9-6.4,6.4S776.2,739,779.7,739z"/>
	<path fill="#FFFFFF" d="M808.9,739c5.6,0,10.2-4.6,10.2-10.2s-4.6-10.2-10.2-10.2s-10.2,4.6-10.2,10.2S803.3,739,808.9,739z"/>
</g>
</svg>
